<svg width="420" height="433" viewBox="0 0 467 480" fill="none" xmlns="http://www.w3.org/2000/svg">
<g filter="url(#filter0_ddddd_57_211)">
<rect x="95" y="57" width="368" height="383" rx="50" fill="white"/>
</g>
<rect x="110" y="71" width="338" height="355" rx="32" stroke="url(#paint0_linear_57_211)" stroke-width="10"/>
<path d="M249.78 129.76L254.196 128.2H257.076V145H253.764V131.704L250.596 132.592L249.78 129.76ZM269.357 128.2L265.637 133.648C267.381 133.696 268.797 134.264 269.885 135.352C270.973 136.44 271.517 137.816 271.517 139.48C271.517 141.192 270.949 142.6 269.813 143.704C268.677 144.792 267.213 145.336 265.421 145.336C263.629 145.336 262.165 144.792 261.029 143.704C259.909 142.632 259.349 141.224 259.349 139.48C259.349 138.216 259.677 137.088 260.333 136.096L265.565 128.2H269.357ZM268.229 139.48C268.229 138.68 267.965 138.032 267.437 137.536C266.909 137.024 266.237 136.768 265.421 136.768C264.605 136.768 263.933 137.016 263.405 137.512C262.893 138.008 262.637 138.664 262.637 139.48C262.637 140.296 262.893 140.96 263.405 141.472C263.933 141.968 264.605 142.216 265.421 142.216C266.237 142.216 266.909 141.968 267.437 141.472C267.965 140.96 268.229 140.296 268.229 139.48ZM277.084 134.68C277.084 135.24 276.884 135.72 276.484 136.12C276.084 136.52 275.604 136.72 275.044 136.72C274.484 136.72 274.004 136.52 273.604 136.12C273.204 135.72 273.004 135.24 273.004 134.68C273.004 134.12 273.204 133.64 273.604 133.24C274.004 132.84 274.484 132.64 275.044 132.64C275.604 132.64 276.084 132.84 276.484 133.24C276.884 133.64 277.084 134.12 277.084 134.68ZM277.084 143.272C277.084 143.832 276.884 144.312 276.484 144.712C276.084 145.112 275.604 145.312 275.044 145.312C274.484 145.312 274.004 145.112 273.604 144.712C273.204 144.312 273.004 143.832 273.004 143.272C273.004 142.712 273.204 142.232 273.604 141.832C274.004 141.432 274.484 141.232 275.044 141.232C275.604 141.232 276.084 141.432 276.484 141.832C276.884 142.232 277.084 142.712 277.084 143.272ZM285.81 145.336C283.714 145.336 282.066 144.544 280.866 142.96C279.682 141.344 279.09 139.224 279.09 136.6C279.09 133.976 279.682 131.864 280.866 130.264C282.066 128.664 283.714 127.864 285.81 127.864C287.938 127.864 289.586 128.664 290.754 130.264C291.938 131.864 292.53 133.976 292.53 136.6C292.53 139.224 291.938 141.344 290.754 142.96C289.586 144.544 287.938 145.336 285.81 145.336ZM289.242 136.6C289.242 134.808 288.946 133.44 288.354 132.496C287.778 131.552 286.93 131.08 285.81 131.08C284.69 131.08 283.842 131.552 283.266 132.496C282.69 133.44 282.402 134.808 282.402 136.6C282.402 138.392 282.69 139.76 283.266 140.704C283.842 141.632 284.69 142.096 285.81 142.096C286.93 142.096 287.778 141.624 288.354 140.68C288.946 139.736 289.242 138.376 289.242 136.6ZM300.927 145.336C298.831 145.336 297.183 144.544 295.983 142.96C294.799 141.344 294.207 139.224 294.207 136.6C294.207 133.976 294.799 131.864 295.983 130.264C297.183 128.664 298.831 127.864 300.927 127.864C303.055 127.864 304.703 128.664 305.871 130.264C307.055 131.864 307.647 133.976 307.647 136.6C307.647 139.224 307.055 141.344 305.871 142.96C304.703 144.544 303.055 145.336 300.927 145.336ZM304.359 136.6C304.359 134.808 304.063 133.44 303.471 132.496C302.895 131.552 302.047 131.08 300.927 131.08C299.807 131.08 298.959 131.552 298.383 132.496C297.807 133.44 297.519 134.808 297.519 136.6C297.519 138.392 297.807 139.76 298.383 140.704C298.959 141.632 299.807 142.096 300.927 142.096C302.047 142.096 302.895 141.624 303.471 140.68C304.063 139.736 304.359 138.376 304.359 136.6ZM243.846 163.92H248.406C249.782 163.92 250.966 164.416 251.958 165.408C252.95 166.4 253.446 167.584 253.446 168.96C253.446 170.352 252.95 171.544 251.958 172.536C250.982 173.512 249.798 174 248.406 174H242.166V157.2H252.006V158.784H243.846V163.92ZM243.846 172.416H248.406C249.334 172.416 250.126 172.08 250.782 171.408C251.438 170.72 251.766 169.904 251.766 168.96C251.766 168.032 251.438 167.224 250.782 166.536C250.142 165.848 249.35 165.504 248.406 165.504H243.846V172.416ZM266.285 164.352V162H267.869V174H266.285V171.648C265.181 173.408 263.565 174.288 261.437 174.288C259.725 174.288 258.261 173.68 257.045 172.464C255.845 171.248 255.245 169.76 255.245 168C255.245 166.24 255.845 164.752 257.045 163.536C258.261 162.32 259.725 161.712 261.437 161.712C263.565 161.712 265.181 162.592 266.285 164.352ZM258.197 171.384C259.109 172.296 260.229 172.752 261.557 172.752C262.885 172.752 264.005 172.296 264.917 171.384C265.829 170.44 266.285 169.312 266.285 168C266.285 166.672 265.829 165.552 264.917 164.64C264.005 163.712 262.885 163.248 261.557 163.248C260.229 163.248 259.109 163.712 258.197 164.64C257.285 165.552 256.829 166.672 256.829 168C256.829 169.312 257.285 170.44 258.197 171.384ZM279.719 167.232V162H281.303V174H279.719V168.768H272.807V174H271.223V162H272.807V167.232H279.719ZM287.917 167.76L294.349 174H292.237L286.237 168.216V174H284.653V162H286.237V167.304L291.949 162H294.109L287.917 167.76ZM300.861 161.712C302.653 161.712 304.085 162.344 305.157 163.608C306.261 164.856 306.813 166.336 306.813 168.048C306.813 168.128 306.797 168.376 306.765 168.792H296.229C296.389 169.992 296.901 170.952 297.765 171.672C298.629 172.392 299.709 172.752 301.005 172.752C302.829 172.752 304.117 172.072 304.869 170.712L306.261 171.528C305.733 172.392 305.005 173.072 304.077 173.568C303.165 174.048 302.133 174.288 300.981 174.288C299.093 174.288 297.557 173.696 296.373 172.512C295.189 171.328 294.597 169.824 294.597 168C294.597 166.192 295.181 164.696 296.349 163.512C297.517 162.312 299.021 161.712 300.861 161.712ZM300.861 163.248C299.613 163.248 298.565 163.616 297.717 164.352C296.885 165.088 296.389 166.056 296.229 167.256H305.181C305.005 165.976 304.517 164.992 303.717 164.304C302.885 163.6 301.933 163.248 300.861 163.248ZM307.424 162H317.504V163.536H313.256V174H311.672V163.536H307.424V162Z" fill="#001F38"/>
<path d="M325.36 317.317C323.534 313.265 322.191 309.046 320.7 304.868C320.448 304.133 320.217 303.378 319.923 302.643C319.273 301.026 318.328 300.082 316.334 299.872C303.78 298.57 296.727 290.32 291.773 279.761C287.616 270.881 287.259 261.372 287.301 251.778C287.343 245.753 287.784 239.729 287.28 233.704C287.112 231.688 288.33 230.933 289.988 230.177C300.631 225.307 311.883 222.893 323.429 221.591C325.549 221.36 326.788 222.032 327.816 224.026C333.065 234.25 338.775 244.221 343.288 254.822C345.492 259.986 346.962 265.297 346.311 270.902C345.366 278.963 344.065 286.982 337.809 293.007C336.822 293.952 335.773 294.939 334.576 295.505C331.574 296.891 331.385 299.452 331.49 302.139C331.7 307.996 333.275 313.622 334.87 319.206C337.62 328.715 340.286 338.267 344.757 347.189C345.429 348.511 345.996 348.91 347.465 348.658C351.013 348.07 354.603 347.944 358.13 347.273C360.418 346.832 361.782 348.091 361.719 350.485C361.656 352.605 360.544 354.116 358.864 355.292C353.49 359.028 347.402 361.191 341.294 363.332C336.339 365.074 331.28 366.46 325.99 366.754C324.626 366.838 323.24 366.88 321.939 366.355C320.049 365.62 319.588 364.298 321.036 362.912C323.933 360.141 325.99 356.53 329.769 354.662C331.973 353.57 332.939 351.702 332.435 349.141C331.448 344.292 330.315 339.443 329.643 334.551C328.845 328.61 326.557 323.068 325.318 317.275C327.229 320.234 327.879 323.719 329.139 326.931C332.099 334.53 333.946 342.549 334.891 350.715C335.038 351.933 334.849 353.025 333.841 353.822C331.469 355.775 329.307 357.979 326.62 359.553C325.13 360.414 323.786 361.527 322.442 362.597C321.855 363.059 320.994 363.626 321.351 364.487C321.666 365.263 322.568 365.431 323.387 365.431C324.962 365.41 326.578 365.557 328.131 365.284C338.103 363.521 347.507 360.057 356.366 355.166C357.29 354.641 358.172 353.969 358.969 353.277C359.977 352.374 359.788 351.093 359.473 350.044C359.137 348.931 357.983 349.498 357.206 349.561C354.351 349.792 351.496 350.212 348.641 350.464C346.332 350.653 344.065 349.75 343.015 347.944C340.895 344.334 338.859 340.534 337.662 336.567C335.185 328.317 332.666 320.067 331.322 311.523C330.734 307.828 329.832 304.175 330.189 300.418C330.336 298.885 330.252 297.92 328.089 298.171C336.864 294.183 342.175 287.717 343.96 278.355C342.448 279.593 341.986 281.608 340.139 282.553C341.902 276.675 343.834 270.839 344.149 264.185C343.393 265.213 343.246 265.906 343.162 266.599C342.385 272.75 340.055 278.46 338.019 284.253C337.704 285.156 337.263 284.862 336.717 284.736C337.557 281.692 338.733 278.711 338.46 274.912C337.242 276.906 337.305 278.837 336.234 280.286C336.088 278.837 337.137 277.62 337.158 276.15C335.92 276.717 335.584 276.633 335.731 276.15C336.214 274.618 335.143 275.395 334.744 275.458C327.418 276.654 320.049 276.948 312.639 277.179C307.37 277.347 303.213 275.374 299.351 272.225C298.406 271.448 297.503 270.629 296.601 269.811C295.698 269.013 295.467 267.355 294.292 267.145C293.137 266.935 292.108 266.62 291.017 265.759C291.877 270.818 293.767 275.185 295.467 279.614C293.515 277.305 292.087 274.702 290.576 272.141C291.898 278.166 294.774 283.351 298.406 288.284C304.809 296.996 313.773 299.326 324.059 299.095C322.673 300.103 321.162 299.704 319.65 300.04C321.351 302.727 322.862 305.141 322.904 308.374C322.904 311.418 325.171 314.126 325.36 317.317ZM336.801 273.002C339.006 272.729 339.698 271.343 338.649 269.244C337.599 270.315 338.103 272.12 336.801 273.002C337.011 272.183 337.179 271.343 337.431 270.503C337.746 269.496 337.473 269.076 336.36 269.076C325.004 269.013 313.668 268.971 302.5 270.21C302.605 270.44 303.696 270.315 303.738 271.238C303.507 271.259 303.297 271.343 303.087 271.322C301.576 271.175 300.421 270.042 298.91 269.685C300.295 272.603 304.179 275.374 306.929 275.353C313.605 275.248 320.322 275.605 326.977 274.723C330.273 274.261 333.652 274.345 336.801 273.002ZM293.599 258.937C293.389 261.267 293.452 263.45 294.9 264.584C297.944 266.956 301.387 269.202 305.481 268.677C314.507 267.481 323.555 267.585 332.624 267.585C338.586 267.585 338.586 267.585 339.929 261.771C342.196 263.24 339.845 266.179 341.902 267.816C342.364 266.284 342.385 264.29 343.372 263.387C344.883 262.001 344.338 260.763 343.96 259.44C343.435 257.593 342.7 255.788 341.986 253.982C337.956 243.717 331.805 234.522 327.124 224.593C326.641 223.564 326.2 223.27 325.025 223.711C320.721 225.328 316.292 226.587 311.862 227.742C310.813 228.015 309.826 228.624 308.126 228.372C310.981 227.364 313.332 226.524 315.683 225.664C318.013 224.824 320.343 223.963 322.652 223.124C311.253 224.32 300.19 226.629 289.862 231.793C292.591 231.458 295.341 231.101 298.07 230.765C295.572 231.856 293.032 232.675 290.387 232.78C288.939 232.843 288.792 233.473 288.855 234.648C288.96 236.475 288.96 238.322 288.96 240.169C288.96 246.173 288.603 252.177 289.358 258.181C289.694 260.973 290.618 263.051 293.137 264.479C292.801 262.463 291.794 260.574 292.528 258.517C292.696 258.034 292.822 257.53 293.431 257.425C293.998 257.341 294.481 257.551 294.711 258.034C295.551 259.755 296.055 261.54 295.32 263.702C294.208 262.211 294.586 260.532 293.599 258.937ZM344.799 267.397C343.834 271.406 342.931 275.122 342.007 278.963C345.765 275.773 345.072 271.679 344.799 267.397Z" fill="#001F38" fill-opacity="0.5"/>
<path d="M236.5 316.477C236.752 314.126 238.305 312.299 239.061 310.158C239.838 307.912 241.811 306.17 241.391 303.336C241.244 302.37 242.798 301.11 243.616 300.019C244.078 299.389 244.603 298.822 245.191 298.109C243.784 297.332 242.126 297.542 240.551 296.387C242.903 296.681 244.855 297.038 246.807 297.143C258.311 297.773 266.519 292.105 272.943 283.204C273.866 281.923 274.706 280.58 275.378 279.152C276.092 277.641 275.525 275.542 277.456 274.576C276.616 271.973 278.674 269.286 277.162 266.62C276.658 265.738 277.75 264.605 277.141 263.345C277.12 268.131 272.355 268.992 270.298 272.099C270.046 271.238 269.248 271.238 268.702 271.427C265.511 272.54 262.405 271.49 259.256 271.259C250.649 270.65 242.021 270.986 233.414 271.343C232.637 271.385 231.84 271.511 231.063 271.637C230.79 271.679 230.496 271.763 230.475 272.141C230.454 272.498 230.706 272.708 230.958 272.729C232.994 273.002 234.883 274.093 236.857 274.219C244.246 274.702 251.656 274.639 259.025 275.29C263.391 275.668 267.254 275.437 270.361 272.036C269.731 273.841 268.261 275.08 267.296 276.675C266.834 277.41 266.099 277.347 265.364 277.305C254.658 276.78 243.973 276.276 233.267 275.731C231.84 275.668 230.412 275.395 228.985 275.311C227.83 275.248 228.439 276.004 228.586 276.444C229.404 278.565 230.013 280.748 230.517 283.435C229.467 282.091 228.922 280.916 228.649 279.74C228.292 278.208 226.717 277.83 226.025 276.591C225.773 276.151 225.689 277.137 225.416 277.767C225.479 274.744 225.29 272.015 223.589 269.034C223.548 271.973 223.883 274.366 224.408 276.696C224.975 279.194 225.689 281.692 226.57 284.107C227.452 286.521 229.236 288.347 231.063 290.089C232.868 291.832 234.841 293.343 237.025 295.023C234.967 294.561 234.715 295.485 234.757 297.059C234.82 299.599 234.002 302.013 233.288 304.427C232.322 307.723 231.63 311.166 230.223 314.273C227.41 320.465 225.521 327.078 222.183 332.977C220.399 336.168 218.572 339.485 216.179 342.298C214.626 344.124 212.317 344.733 209.965 344.292C207.152 343.746 204.381 342.948 201.568 342.34C200.834 342.172 199.847 341.458 199.301 342.633C198.839 343.641 198.609 344.754 199.385 345.698C200.057 346.517 200.834 347.315 201.694 347.945C209.567 353.717 218.09 358.252 227.368 361.317C229.425 361.988 231.525 362.45 233.708 362.408C234.296 362.387 234.925 362.324 235.24 361.779C235.618 361.107 235.177 360.498 234.736 360.057C233.477 358.777 232.28 357.412 230.853 356.321C228.334 354.368 226.381 351.891 224.24 349.582C223.338 348.616 223.338 347.504 223.632 346.349C225.668 338.162 228.775 330.353 232.616 322.88C233.645 320.864 234.778 318.786 236.08 316.855C236.248 317.464 236.017 317.988 235.765 318.513C232.595 324.601 230.916 331.235 228.796 337.721C227.935 340.387 226.822 342.948 226.067 345.656C225.584 347.441 226.13 348.7 227.158 349.96C227.347 350.191 227.536 350.401 227.767 350.569C231.399 352.941 233.162 356.866 235.681 360.141C237.004 361.863 236.479 363.038 234.338 363.5C232.007 364.004 229.719 363.416 227.536 362.765C217.775 359.763 208.79 355.145 200.603 349.036C198.483 347.441 196.656 345.614 197.055 342.592C197.37 340.156 198.693 339.317 201.065 339.967C204.381 340.891 207.782 341.563 211.036 342.675C212.946 343.326 213.681 342.549 214.584 341.164C219.454 333.733 223.086 325.693 226.612 317.569C229.236 311.502 231.986 305.498 233.183 298.927C233.708 296.114 233.792 293.616 230.979 291.538C226.486 288.221 224.45 283.372 223.401 277.956C222.687 274.261 222.624 270.588 222.603 266.851C222.582 262.883 223.275 259.105 224.849 255.515C226.906 250.834 229.572 246.467 232.469 242.269C237.403 235.11 242.504 228.057 247.437 220.898C248.382 219.513 249.473 219.282 250.922 219.618C261.985 222.158 272.502 226.063 282.368 231.731C285.097 233.284 286.21 234.816 285.496 238.301C284.258 244.41 283.88 250.687 283.145 256.9C281.969 267.082 279.408 276.801 273.048 285.135C270.633 288.284 267.779 291.034 264.693 293.532C259.906 297.416 254.133 298.235 248.277 298.36C246.765 298.402 245.799 298.696 245.128 299.935C242.819 304.322 240.551 308.71 238.263 313.097C237.696 314.189 237.088 315.343 236.5 316.477ZM230.412 258.979C230.454 258.622 230.433 258.181 230.832 258.076C231.357 257.929 231.378 258.433 231.399 258.748C231.483 259.462 231.546 260.175 231.504 260.889C231.315 263.408 231.189 265.927 230.79 268.404C230.538 269.979 231.126 270.105 232.385 269.937C233.729 269.748 235.093 269.643 236.458 269.601C246.093 269.265 255.75 269.475 265.385 269.643C270.634 269.727 275.147 266.536 276.952 261.666C277.204 260.994 277.372 260.07 278.254 260.238C279.177 260.427 279.387 261.435 279.135 262.17C278.632 263.744 278.925 265.066 279.933 266.41C280.836 264.017 281.13 261.54 281.487 259.084C282.452 252.072 282.536 244.935 284.279 238.028C284.677 236.496 284.468 235.236 282.242 234.9C279.807 234.523 277.456 233.473 275.315 232.066C278.065 232.759 280.794 233.473 283.796 234.229C279.408 230.156 256.905 221.066 252.433 221.528C256.842 223.816 261.145 226.021 265.595 228.33C264.735 228.687 264.231 228.246 263.748 228.036C259.025 225.958 254.196 224.068 249.62 221.612C248.78 221.171 248.277 221.066 247.689 221.969C241.622 231.479 234.149 240.044 228.691 249.973C226.864 253.311 225.017 256.649 224.87 260.595C224.87 260.763 224.954 260.931 224.996 261.12C225.521 260.679 225.017 259.734 226.088 259.504C225.983 260.868 225.857 262.128 225.815 263.408C225.794 263.849 225.479 264.71 226.57 264.353C226.549 264.563 226.633 264.878 226.507 264.983C224.891 266.326 225.941 267.775 226.528 269.013C226.864 269.727 227.83 270.315 228.88 270.126C229.929 269.937 229.866 269.097 229.971 268.299C230.223 266.389 230.622 264.479 230.727 262.568C230.832 261.393 231.546 260.07 230.412 258.979Z" fill="#001F38" fill-opacity="0.5"/>
<path d="M295.971 208.345C297.503 203.139 299.791 198.646 302.499 194.364C302.835 193.818 303.402 193.23 304.074 193.692C304.62 194.049 304.368 194.763 304.158 195.288C303.822 196.064 303.612 197.156 302.982 197.534C299.015 199.99 298.784 204.755 295.971 208.345Z" fill="#001F38" fill-opacity="0.5"/>
<path d="M329.915 190.333C331.783 187.562 333.904 185.001 336.549 182.923C337.22 182.398 338.144 181.496 338.984 182.356C339.865 183.238 338.795 184.015 338.354 184.77C338.249 184.959 338.06 185.085 337.913 185.253C337.199 184.77 338.249 184.351 337.766 183.679C334.806 185.484 332.56 188.129 329.915 190.333Z" fill="#001F38" fill-opacity="0.5"/>
<path d="M264.21 207.085C262.068 205.931 260.725 204.105 259.549 202.131C259.234 201.585 259.003 200.83 259.675 200.389C260.41 199.906 260.788 200.599 261.271 201.04C263.055 202.656 262.446 205.406 264.21 207.085Z" fill="#001F38" fill-opacity="0.5"/>
<path d="M283.922 222.662C284.048 221.822 283.67 220.898 284.699 220.751C285.643 220.604 285.832 221.465 286.063 222.116C286.378 222.977 286.651 223.879 286.798 224.782C286.903 225.391 286.609 225.852 285.853 225.894C285.202 225.936 284.573 226.146 284.426 225.202C284.279 224.278 284.069 223.375 283.922 222.662Z" fill="#001F38" fill-opacity="0.5"/>
<path d="M291.018 256.229C291.206 254.654 289.317 254.066 290.598 252.807C290.787 252.618 291.185 252.576 291.353 252.849C291.983 253.793 291.668 254.717 291.018 256.229Z" fill="#001F38" fill-opacity="0.5"/>
<path d="M277.665 254.591C277.98 254.003 277.707 252.765 278.736 252.891C279.386 252.975 279.722 254.024 279.659 254.843C279.596 255.515 279.323 256.186 278.505 256.123C277.644 256.061 277.665 255.326 277.665 254.591Z" fill="#001F38" fill-opacity="0.5"/>
<path d="M227.787 264.857C227.451 265.78 227.347 265.843 227.011 265.277C226.843 265.004 226.717 264.71 226.549 264.416C227.158 262.38 227.766 260.364 228.375 258.328C228.501 258.349 228.648 258.391 228.774 258.412C228.417 259.902 228.06 261.393 227.724 262.883C227.577 263.555 227.074 264.227 227.787 264.857Z" fill="#001F38" fill-opacity="0.5"/>
<defs>
<filter id="filter0_ddddd_57_211" x="0.560715" y="0.991802" width="556.879" height="571.879" filterUnits="userSpaceOnUse" color-interpolation-filters="sRGB">
<feFlood flood-opacity="0" result="BackgroundImageFix"/>
<feColorMatrix in="SourceAlpha" type="matrix" values="0 0 0 0 0 0 0 0 0 0 0 0 0 0 0 0 0 0 127 0" result="hardAlpha"/>

<feColorMatrix type="matrix" values="0 0 0 0 0.00784314 0 0 0 0 0.0117647 0 0 0 0 0.160784 0 0 0 0.0165487 0"/>
<feBlend mode="normal" in2="BackgroundImageFix" result="effect1_dropShadow_57_211"/>
<feColorMatrix in="SourceAlpha" type="matrix" values="0 0 0 0 0 0 0 0 0 0 0 0 0 0 0 0 0 0 127 0" result="hardAlpha"/>


<feColorMatrix type="matrix" values="0 0 0 0 0.00784314 0 0 0 0 0.0117647 0 0 0 0 0.160784 0 0 0 0.0262803 0"/>
<feBlend mode="normal" in2="effect1_dropShadow_57_211" result="effect2_dropShadow_57_211"/>
<feColorMatrix in="SourceAlpha" type="matrix" values="0 0 0 0 0 0 0 0 0 0 0 0 0 0 0 0 0 0 127 0" result="hardAlpha"/>


<feColorMatrix type="matrix" values="0 0 0 0 0.00784314 0 0 0 0 0.0117647 0 0 0 0 0.160784 0 0 0 0.0336338 0"/>
<feBlend mode="normal" in2="effect2_dropShadow_57_211" result="effect3_dropShadow_57_211"/>
<feColorMatrix in="SourceAlpha" type="matrix" values="0 0 0 0 0 0 0 0 0 0 0 0 0 0 0 0 0 0 127 0" result="hardAlpha"/>


<feColorMatrix type="matrix" values="0 0 0 0 0.00784314 0 0 0 0 0.0117647 0 0 0 0 0.160784 0 0 0 0.0405744 0"/>
<feBlend mode="normal" in2="effect3_dropShadow_57_211" result="effect4_dropShadow_57_211"/>
<feColorMatrix in="SourceAlpha" type="matrix" values="0 0 0 0 0 0 0 0 0 0 0 0 0 0 0 0 0 0 127 0" result="hardAlpha"/>

<feColorMatrix type="matrix" values="0 0 0 0 0.00784314 0 0 0 0 0.0117647 0 0 0 0 0.160784 0 0 0 0.0492964 0"/>
<feBlend mode="normal" in2="effect4_dropShadow_57_211" result="effect5_dropShadow_57_211"/>
<feBlend mode="normal" in="SourceGraphic" in2="effect5_dropShadow_57_211" result="shape"/>
</filter>
<linearGradient id="paint0_linear_57_211" x1="442.626" y1="75.53" x2="101.55" y2="405.515" gradientUnits="userSpaceOnUse">
<stop stop-color="#001F38"/>
<stop offset="0.25" stop-color="#1E9AFF"/>
<stop offset="0.515625" stop-color="#001F38"/>
<stop offset="0.78125" stop-color="#1E9AFF"/>
<stop offset="1" stop-color="#001F38"/>
</linearGradient>
</defs>
</svg>
