<svg width="300" height="218" viewBox="0 0 300 218" fill="none" xmlns="http://www.w3.org/2000/svg">
<path d="M-72.3331 205.897L-72.5086 211.855L-68.775 207.209C-65.322 202.911 -62.8961 197.198 -60.9914 190.625C-59.0827 184.039 -57.6543 176.43 -56.2844 168.252C-55.8489 165.652 -55.4187 162.992 -54.9807 160.283C-52.6511 145.877 -50.0983 130.091 -45.3242 114.575C-39.6638 96.178 -30.9217 78.3219 -15.8688 63.88C-0.832582 49.4541 20.6424 38.2985 52.0076 33.5335C69.5564 30.8675 91.152 31.4125 114.402 33.1485C127.428 34.1212 140.837 35.4542 154.3 36.7926C164.939 37.8502 175.612 38.9112 186.157 39.8004C209.912 41.8037 232.783 42.9088 252.158 40.9797C271.472 39.0567 287.722 34.0837 297.828 23.5585C305.507 15.5617 310.623 9.7965 313.738 5.32654C316.839 0.877249 318.206 -2.62962 317.795 -6.02348C317.396 -9.31609 315.344 -12.0488 313.071 -14.9336C312.818 -15.2545 312.558 -15.5812 312.293 -15.915C310.091 -18.691 307.495 -21.962 304.881 -26.521L304.279 -27.5709L303.069 -27.5245L-64.006 -13.4479L-65.8734 -13.3763L-65.9284 -11.5083L-72.3331 205.897Z" stroke="url(#paint0_linear_67_260)" stroke-width="4"/>
<defs>
<linearGradient id="paint0_linear_67_260" x1="315.543" y1="20.523" x2="-13.3537" y2="47.2314" gradientUnits="userSpaceOnUse">
<stop stop-color="#001F38"/>
<stop offset="0.25" stop-color="#1E9AFF"/>
<stop offset="0.479167" stop-color="#001F38"/>
<stop offset="0.770833" stop-color="#1E9AFF"/>
<stop offset="1" stop-color="#001F38"/>
</linearGradient>
</defs>
</svg>
