<svg width="495" height="475" viewBox="0 0 495 475" fill="none" xmlns="http://www.w3.org/2000/svg">
<path d="M304.633 361.948C280.639 321.468 257.236 280.738 239.554 237.068C234.925 254.258 227.705 270.298 220.353 286.258C206.444 316.458 190.68 345.618 171.346 372.918C160.812 387.788 149.432 401.748 135.533 413.688C129.17 419.158 122.206 423.778 115.119 428.298C111.254 430.768 107.44 431.218 103.168 431.248C94.9999 431.318 87.0257 429.838 78.97 428.888C65.4384 427.288 54.1909 421.348 44.2181 412.718C35.2039 404.918 30.5744 394.448 26.8422 383.608C24.9252 378.038 24.1502 372.088 22.1108 366.578C17.6444 354.488 20.1019 342.178 20.6424 330.038C22.0292 298.888 26.4343 268.048 32.3691 237.428C33.2154 233.068 34.4595 228.778 35.7545 224.528C36.2236 222.978 36.142 222.168 34.6736 221.248C28.3514 217.298 22.7124 212.348 16.4819 208.358C12.2603 205.658 10.8021 202.118 9.38472 198.088C5.29567 186.428 2.7056 174.398 0.146119 162.358C-0.0884156 161.248 -0.0476289 160.118 0.319468 158.988C5.30587 143.838 12.1889 129.618 21.4785 116.528C22.6818 114.838 24.1808 113.778 26.1182 113.038C41.832 107.048 57.709 101.478 73.6981 96.2383C74.8809 95.8483 76.0944 95.2483 76.9102 96.9183C77.2569 97.6383 78.1746 97.5283 78.8884 97.6883C90.4825 100.308 101.404 104.538 111.499 110.768C112.753 111.538 113.538 112.458 113.946 113.818C118.351 128.408 122.053 143.148 123.97 158.278C124.011 158.568 123.878 158.878 123.776 159.458C122.257 158.218 122.002 156.568 121.553 155.088C118.005 143.508 114.823 131.828 112.182 120.018C111.264 115.908 109.388 113.068 105.483 111.008C96.7334 106.418 87.8313 102.188 78.6641 98.4883C77.3486 97.9583 76.1454 97.9183 74.7586 98.3783C58.5043 103.808 42.2297 109.178 25.9551 114.568C24.9761 114.898 24.0584 115.188 23.467 116.258C15.9313 129.888 7.91634 143.268 2.20594 157.788C1.40037 159.828 1.24741 161.648 1.92043 163.758C6.18283 177.168 10.3535 190.618 15.0645 203.888C15.4928 205.098 16.2066 205.788 17.2161 206.378C27.9843 212.698 38.7525 218.998 49.4901 225.358C50.571 225.998 51.4581 225.718 52.4574 225.318C66.193 219.758 79.7858 213.878 93.297 207.818C94.3677 207.338 94.8163 206.538 95.367 205.658C102.668 194.038 110 182.438 117.332 170.838C117.546 170.498 117.841 170.198 118.158 169.798C118.718 171.268 117.27 172.138 117.311 173.358C120.911 173.528 121.757 174.358 121.013 177.788C119.626 184.208 116.373 189.758 111.815 194.498C109.612 196.788 107.807 196.358 106.003 193.418C100.588 201.238 96.1114 209.908 85.3024 213.088C86.832 213.828 87.8313 214.008 88.28 214.598C89.0651 215.648 91.5634 213.908 91.2065 216.308C90.87 218.538 89.575 220.308 87.9741 221.968C82.9163 227.248 76.074 225.808 69.8945 226.698C64.7348 227.438 59.4935 227.678 54.2317 227.698C56.6994 227.238 59.1467 226.598 61.6348 226.378C64.0414 226.158 65.7647 225.508 65.9482 222.638C61.2168 224.168 56.5261 225.628 51.9068 227.218C49.4085 228.078 47.4506 227.928 45.3398 227.018C42.7498 225.908 40.2515 224.608 37.6206 223.348C34.5818 235.198 32.8687 247.168 31.0536 259.118C27.3827 283.278 24.915 307.558 23.0285 331.908C22.4982 338.718 22.1005 345.538 21.5601 352.348C21.2848 355.908 21.8252 359.338 22.7838 362.758C25.9551 374.018 29.1264 385.238 34.4391 395.798C39.6804 406.228 47.8687 413.538 57.7497 419.608C67.0699 425.328 77.2263 427.088 88.1474 427.218C86.883 425.258 85.5063 423.388 84.3948 421.368C78.919 411.438 76.1148 400.618 73.6471 389.708C70.5471 375.978 67.8143 362.178 66.0502 348.208C65.9074 347.098 65.9074 345.968 66.0502 344.818C67.8245 355.328 69.8027 365.798 72.2399 376.168C75.5845 390.468 78.8578 404.758 84.6192 418.418C87.4744 425.188 91.4513 429.178 99.2827 428.748C102.107 428.588 104.973 429.008 107.797 429.318C109.663 429.518 111.05 428.638 112.488 427.788C122.287 421.968 130.843 414.578 139.347 407.138C142.417 404.448 145.251 401.508 148.351 398.858C158.355 390.288 164.667 378.998 172.111 368.498C200.051 329.098 217.794 284.808 236.434 240.918C238.29 236.548 238.229 232.688 236.291 228.248C229.643 213.038 224.534 197.278 219.966 180.368C218.069 186.238 217.233 191.558 215.092 196.458C213.572 195.518 214.235 194.458 214.745 193.438C217.029 188.828 217.967 183.798 218.966 178.868C219.772 174.868 217.784 170.958 216.978 167.028C212.216 143.738 210.431 120.318 213.45 96.6683C214.327 89.7883 215.795 83.0083 218.446 76.5383C219.028 75.1183 219.772 73.7683 220.72 72.4883C218.416 78.3783 216.876 84.4283 215.867 90.6283C213.195 107.198 213.45 123.828 215.051 140.458C218.457 175.858 230.744 208.838 243.338 241.808C252.953 266.988 266.128 290.388 278.926 314.008C287.134 329.168 295.282 344.348 303.45 359.528C303.878 360.348 304.245 361.158 304.633 361.948ZM67.7837 224.228C72.556 224.838 76.4717 223.588 80.4078 223.738C83.6199 223.858 85.1189 222.088 86.3935 219.678C86.8524 218.798 87.2195 217.988 86.6076 217.078C85.955 216.118 84.9455 216.218 84.038 216.438C78.246 217.798 73.2494 220.688 67.7837 224.228ZM118.147 176.268C112.784 180.078 110.316 185.768 107.889 191.478C107.818 191.658 107.848 191.888 107.858 192.088C107.899 192.708 107.96 193.458 108.644 193.588C109.041 193.668 109.684 193.308 109.99 192.948C114.119 188.108 117.321 182.798 118.147 176.268Z" fill="#001F38" fill-opacity="0.5"/>
<path d="M433.729 378.318C435.921 394.368 437.043 410.308 433.229 426.148C432.842 427.758 432.373 429.348 431.822 430.908C426.469 445.948 412.713 451.438 398.029 444.428C391.809 441.458 386.404 437.308 381.316 432.788C358.617 412.618 339.956 389.248 324.395 363.438C323.437 361.838 322.641 360.138 321.816 358.468C321.703 358.238 321.795 357.898 321.795 356.898C326.251 364.378 330.973 370.908 335.755 377.398C350.133 396.898 365.826 415.278 384.487 431.028C390.881 436.418 397.437 441.718 406.105 443.348C415.721 445.158 423.216 441.408 427.254 432.678C429.365 428.118 430.333 423.248 431.18 418.348C431.374 417.208 431.251 416.508 429.864 416.078C413.304 410.908 399.875 400.678 386.914 389.908C367.193 373.518 351.877 353.308 337.019 332.788C330.249 323.428 323.712 313.898 317.553 304.138C316.972 303.208 316.452 302.238 316.391 300.978C317.002 301.828 317.624 302.668 318.226 303.528C336.693 329.768 355.67 355.618 378.461 378.508C385.466 385.548 392.512 392.658 400.731 398.268C409.735 404.408 419.861 408.658 430.119 412.478C432.271 413.278 432.057 411.618 432.179 410.508C433.158 401.028 433.637 391.528 433.698 382.008C433.739 380.778 433.729 379.548 433.729 378.318Z" fill="#001F38" fill-opacity="0.5"/>
<path d="M230.612 129.288C238.454 107.938 252.506 101.608 269.606 105.588C280.629 108.158 290.429 113.338 299.616 119.748C320.989 134.658 337.121 154.138 350.582 175.928C370.395 207.988 386.639 241.838 402.057 276.068C413.427 301.308 424.46 326.688 432.373 353.228C434.198 359.358 436.462 365.438 436.523 371.948C436.533 373.238 436.972 375.308 435.565 375.528C434.015 375.768 434.015 373.618 433.688 372.428C428.141 352.378 422.094 332.478 414.171 313.188C400.354 279.558 387.536 245.468 370.344 213.318C356.18 186.828 340.721 160.968 319.409 139.198C306.03 125.538 291.122 113.728 272.145 108.008C256.227 103.218 244.715 107.278 235.721 120.998C234.018 123.568 232.478 126.238 230.612 129.288Z" fill="#001F38" fill-opacity="0.5"/>
<path d="M323.478 389.698C326.139 391.288 327.832 393.668 329.647 395.938C341.975 411.328 354.558 426.538 369.66 439.438C385.303 452.798 402.638 463.488 422.706 469.378C431.271 471.888 439.694 470.868 447.668 467.158C460.119 461.368 471.193 453.338 482.155 445.318C486.56 442.098 489.365 436.808 490.211 430.958C491.914 419.308 493.107 407.628 493.688 395.858C495.014 405.108 494.473 414.388 494.371 423.668C494.269 432.398 491.944 440.168 485.938 446.738C485.52 447.188 485.225 447.798 484.725 448.118C473.6 455.418 463.127 463.878 450.85 469.198C439.99 473.908 428.722 476.088 416.69 471.408C393.593 462.428 373.729 449.098 356.883 431.318C345.085 418.858 334.501 405.448 324.609 391.498C324.202 390.928 323.855 390.298 323.478 389.698Z" fill="#001F38" fill-opacity="0.5"/>
<path d="M95.9176 386.628C93.0318 378.758 91.4819 370.738 90.1053 362.718C87.5356 347.788 86.3425 332.738 86.7096 317.588C87.1583 298.938 91.2575 280.888 96.193 262.998C107.96 220.338 124.643 179.538 145.017 140.188C156.213 118.568 169.653 98.2583 184.898 79.1483C193.351 68.5483 203.997 60.5083 216.213 54.4483C219.425 52.8483 222.811 51.6983 226.41 51.2983C227.012 51.2283 227.797 51.1883 227.95 51.9883C228.113 52.8383 227.399 52.9283 226.757 53.0183C216.489 54.4183 208.535 60.3183 200.632 66.1783C192.128 72.4783 185.663 80.6783 179.391 89.0483C156.244 119.918 138.797 153.768 124.072 189.128C110.734 221.148 99.4458 253.768 92.2161 287.668C87.7803 308.468 87.8517 329.358 90.2276 350.368C91.5125 361.788 93.7558 373.048 95.938 384.328C96.0808 385.008 96.4071 385.688 95.9176 386.628Z" fill="#001F38" fill-opacity="0.5"/>
<path d="M493.728 396.058C492.443 385.428 492.994 376.458 491.485 365.938C487.753 339.938 485.203 313.788 480.319 287.938C479.615 284.208 478.463 280.778 476.903 277.388C462.341 245.748 447.81 214.088 433.208 182.468C429.354 174.128 423.46 167.008 418.32 159.458C404.626 139.328 390.706 119.348 376.859 99.3283C371.689 91.8483 365.101 85.5283 359.136 78.6883C357.841 77.1983 356.495 75.7483 355.159 74.2583C356.108 73.4983 356.383 74.3583 356.709 74.6983C365.285 83.6883 374.371 92.3983 381.315 102.608C387.311 111.418 393.276 120.278 399.374 129.028C409.01 142.858 418.239 156.948 427.6 170.958C440.723 190.588 449.126 212.408 459.088 233.508C466.92 250.098 474.7 266.758 480.727 284.068C483.5 292.028 484.612 300.598 486.05 308.958C490.547 335.068 493.218 354.008 494.319 380.508C494.432 383.298 494.35 389.208 494.319 391.998C494.309 392.508 493.769 395.548 493.728 396.058Z" fill="#001F38" fill-opacity="0.5"/>
<path d="M275.744 35.5583C274.949 35.6083 274.653 34.9683 274.357 34.4683C267.291 22.4783 256.247 15.4783 243.491 10.5183C230.632 5.50828 217.355 2.56829 203.518 2.11829C190.17 1.67829 177.648 4.86829 165.666 10.4783C148.076 18.7083 134.198 31.4583 121.237 45.3283C111.896 55.3383 103.606 66.1883 95.5403 77.1883C92.4811 81.3583 90.2582 86.1183 87.6069 90.5783C86.4954 92.4383 85.3533 94.3083 83.7218 95.8783C82.8958 95.5083 83.4975 94.9883 83.6402 94.7183C100.465 64.0183 121.584 36.7783 150.88 16.4683C164.595 6.95829 179.86 0.478288 196.9 0.0482876C222.117 -0.591712 245.642 5.06829 265.832 20.7283C270.289 24.1883 274.062 28.4783 275.734 34.0883C275.897 34.5783 276.101 35.0683 275.744 35.5583Z" fill="#001F38" fill-opacity="0.5"/>
<path d="M266.434 115.558C264.935 127.408 265.894 138.728 268.096 149.908C275.856 189.418 285.849 228.378 299.565 266.338C303.174 276.328 307.314 286.138 312.382 295.568C310.588 294.438 309.925 292.538 309.028 290.828C299.31 272.288 292.08 252.798 286.053 232.848C277.875 205.788 270.411 178.558 265.72 150.668C264.068 140.858 262.875 130.998 264.079 121.018C264.425 117.988 264.588 117.398 266.434 115.558Z" fill="#001F38" fill-opacity="0.5"/>
<path d="M242.92 64.7783C247.947 64.1683 252.75 65.0883 257.471 66.4383C274.378 71.2683 288.919 80.3583 302.379 91.1383C320.969 106.018 337.865 122.618 353.233 140.708C353.753 141.318 354.191 142.008 354.252 143.078C353.549 142.328 352.855 141.568 352.152 140.828C331.645 119.358 310.241 98.8383 285.309 82.2583C272.757 73.9083 259.307 67.3583 244.052 65.1283C243.654 65.0683 243.287 64.8983 242.92 64.7783Z" fill="#001F38" fill-opacity="0.5"/>
<path d="M221.699 69.0683C221.985 67.7683 223.086 67.0783 223.932 66.2683C234.333 56.1583 245.968 47.6083 259.031 41.1283C267.117 37.1083 275.866 36.1983 284.87 37.5583C290.917 38.4683 296.832 39.8683 302.746 41.4183C311.301 43.6683 318.592 48.2483 325.914 52.7883C335 58.4283 343.779 64.5083 352.243 71.0283C353.303 71.8483 354.313 72.7283 355.567 73.7583C353.783 74.5083 352.936 73.3583 352.1 72.7183C339.823 63.4283 326.648 55.3983 313.667 47.1483C308.946 44.1483 302.838 43.9883 297.321 42.7083C292.202 41.5183 287.042 40.4283 281.852 39.5883C273.236 38.1883 265.231 39.8783 257.532 44.0283C245.52 50.4983 234.945 58.8283 224.605 67.4983C223.892 68.0983 223.117 68.6383 222.352 69.1683C222.229 69.2583 221.975 69.1183 221.699 69.0683Z" fill="#001F38" fill-opacity="0.5"/>
<path d="M225.299 21.5683C193.759 50.2783 168.45 84.0783 143.446 118.478C145.567 105.218 208.891 30.2383 225.299 21.5683Z" fill="#001F38" fill-opacity="0.5"/>
<path d="M118.453 399.898C123.48 399.738 127.722 397.808 131.689 395.118C145.221 385.928 156.631 374.498 167.522 362.518C172.488 357.058 177.219 351.388 182.063 345.788C182.563 346.518 181.93 346.998 181.624 347.438C170.54 363.508 158.161 378.478 142.865 390.928C138.725 394.298 134.289 397.308 129.333 399.418C125.805 400.928 122.134 401.588 118.453 399.898Z" fill="#001F38" fill-opacity="0.5"/>
<path d="M104.422 378.628C123.246 365.498 135.36 347.978 146.893 329.958C161.873 306.548 175.129 282.218 187.437 257.388C187.896 256.468 188.385 255.558 188.885 254.608C189.65 255.018 189.262 255.488 189.089 255.858C173.895 288.438 156.825 319.998 135.727 349.338C128.528 359.358 120.258 368.468 110.193 375.858C108.929 376.788 107.563 377.578 106.217 378.388C106.013 378.518 105.676 378.468 104.422 378.628Z" fill="#001F38" fill-opacity="0.5"/>
<path d="M432.525 280.928C411.733 240.008 391.002 200.028 368.12 160.198C375.87 167.988 429.945 269.398 432.525 280.928Z" fill="#001F38" fill-opacity="0.5"/>
<path d="M461.373 416.198C457.947 383.668 452.461 351.948 446.139 320.618C451.421 329.488 462.831 400.008 461.373 416.198Z" fill="#001F38" fill-opacity="0.5"/>
<path d="M72.79 182.118C78.5412 173.678 85.5161 166.728 92.7254 159.788C93.2557 161.028 92.2768 161.438 91.8179 161.978C87.015 167.748 82.1408 173.478 76.6853 178.668C74.7989 180.468 75.2068 181.398 76.8689 182.958C82.1306 187.878 86.9844 193.168 91.5732 199.638C89.7989 199.128 89.1462 198.238 88.412 197.518C83.8845 193.018 79.7445 188.198 75.8288 183.178C75.1864 182.318 74.7581 180.628 72.79 182.118Z" fill="#001F38" fill-opacity="0.5"/>
<path d="M191.872 248.768C197.307 233.288 204.731 218.588 210.604 203.278C206.495 219.288 198.979 233.948 191.872 248.768Z" fill="#001F38" fill-opacity="0.5"/>
<path d="M26.729 153.388C26.2293 151.368 26.9329 150.378 27.3612 149.388C30.7772 141.398 34.7133 133.648 38.9961 126.068C39.404 125.348 39.8629 124.648 40.3727 123.998C40.7602 123.498 41.3007 123.078 41.9737 123.578C42.4529 123.928 42.4733 124.448 42.2694 124.968C42.198 125.158 42.0858 125.338 41.9839 125.518C37.0179 134.588 32.0621 143.658 26.729 153.388Z" fill="#001F38" fill-opacity="0.5"/>
<path d="M49.6231 191.868C50.0514 200.838 50.5511 209.838 49.4192 219.248C47.6653 215.178 47.7265 198.098 49.6231 191.868Z" fill="#001F38" fill-opacity="0.5"/>
<path d="M95.2139 160.018C102.566 160.618 109.786 161.558 116.964 163.878C113.895 164.928 100.853 162.648 95.2139 160.018Z" fill="#001F38" fill-opacity="0.5"/>
<path d="M32.9095 179.328C28.3208 185.488 23.5485 191.498 17.9707 196.848C22.5186 190.668 26.7301 184.198 32.9095 179.328Z" fill="#001F38" fill-opacity="0.5"/>
<path d="M82.3146 126.808C76.8795 125.698 72.0359 123.258 67.4268 120.308C72.8414 121.448 77.7871 123.638 82.3146 126.808Z" fill="#001F38" fill-opacity="0.5"/>
<path d="M46.0332 124.098C51.6212 122.008 57.454 120.928 63.3887 120.328C57.9333 122.988 52.0291 123.718 46.0332 124.098Z" fill="#001F38" fill-opacity="0.5"/>
<path d="M105.809 117.968C100.965 122.528 95.8974 126.868 90.2686 130.518C94.949 125.748 100.037 121.478 105.809 117.968Z" fill="#001F38" fill-opacity="0.5"/>
<path d="M73.5245 101.388C71.7502 107.158 69.5273 112.208 66.9678 117.658C67.0494 113.588 70.7203 104.478 73.5245 101.388Z" fill="#001F38" fill-opacity="0.5"/>
<path d="M54.4561 188.328C59.1161 186.038 63.9802 184.368 69.2113 183.898C64.5818 186.328 59.575 187.518 54.4561 188.328Z" fill="#001F38" fill-opacity="0.5"/>
<path d="M29.0038 173.828C26.5055 169.468 25.8631 164.588 25.0371 159.768C27.0765 164.258 28.4735 168.928 29.0038 173.828Z" fill="#001F38" fill-opacity="0.5"/>
<path d="M20.5289 160.308C15.7566 159.948 11.5044 158.458 7.47656 156.318C12.1469 156.788 16.45 158.388 20.5289 160.308Z" fill="#001F38" fill-opacity="0.5"/>
<path d="M87.5557 138.778C89.6869 144.268 90.3803 150.038 91.0635 155.808C89.1668 150.268 88.3306 144.528 87.5557 138.778Z" fill="#001F38" fill-opacity="0.5"/>
<path d="M28.0254 117.948C31.574 120.168 34.1539 123.318 36.5196 126.678C33.2157 124.238 30.3707 121.348 28.0254 117.948Z" fill="#001F38" fill-opacity="0.5"/>
</svg>
