<svg width="140" height="177" viewBox="0 0 140 177" fill="none" xmlns="http://www.w3.org/2000/svg">
<path d="M41.9251 73.9529C33.1445 73.9699 25.6874 70.2116 18.6714 65.4778C11.7318 60.7863 6.23442 54.6611 2.89187 46.9325C-2.37647 34.75 -0.281005 23.4244 7.82936 13.227C13.9291 5.55782 22.0988 1.23115 31.8465 0.204634C46.8456 -1.37332 59.2996 6.25347 64.8139 20.3533C70.1332 33.9356 68.1056 46.6526 59.9274 58.5466C58.1628 61.1172 56.1607 63.4926 53.9634 65.6983C53.5562 66.1055 53.5392 66.3685 53.8361 66.8606C54.413 67.8108 55.185 68.4216 56.2455 68.727C56.9411 68.9306 57.6368 69.1597 58.2816 69.4736C60.3431 70.4661 60.6994 72.4344 59.1129 74.0887C58.061 75.1831 56.7206 75.8193 55.3208 76.3368C54.4554 76.6592 53.5477 76.8883 52.6484 77.1003C52.1055 77.2276 51.9613 77.4142 52.2921 77.9148C56.1691 83.6667 56.8817 90.1482 56.5763 96.8418C56.3388 101.983 55.3717 107.048 54.9984 112.18C54.4979 119.077 54.3791 125.958 56.7545 132.6C59.0281 138.955 62.4979 144.63 66.85 149.771C69.0897 152.41 71.4736 154.895 74.1205 157.194C73.9254 156.83 73.7387 156.465 73.5351 156.1C70.8373 151.358 69.2848 146.259 68.8776 140.821C68.3856 134.127 70.4216 128.24 74.5786 123.014C76.3093 120.834 78.1502 118.721 79.4228 116.21C80.1693 114.725 80.9414 113.215 81.0601 111.561C81.1789 109.881 81.3061 108.159 80.7208 106.505C80.339 105.419 80.2881 104.282 80.3814 103.145C80.4154 102.763 80.373 102.534 79.9742 102.314C78.4472 101.474 78.0569 100.133 78.8459 98.5639C79.5415 97.1811 80.7293 96.4006 82.1545 95.9086C82.426 95.8153 82.7144 95.7559 82.9944 95.6795C77.4291 91.0644 74.4598 84.8968 72.4492 78.1947C71.1682 73.9444 70.744 69.5584 71.7281 65.1893C73.0092 59.4883 76.6402 55.5689 81.6879 52.8626C84.9965 51.0895 88.4918 50.0375 92.301 50.3769C94.9903 50.6144 97.4675 51.4034 99.5714 53.1765C102.235 55.4162 104.645 57.8679 106.35 60.939C106.486 61.1766 106.536 61.5159 106.944 61.1596C108.937 59.4119 111.406 58.7248 113.9 58.1479C119.483 56.8499 125.056 56.6717 130.588 58.4024C132.632 59.0387 134.516 59.9973 136.136 61.4141C139.724 64.5531 140.556 68.481 139.351 72.9603C138.367 76.6253 136.39 79.7812 133.99 82.6402C127.754 90.0633 120.297 95.8916 111.135 99.2342C105.094 101.44 98.8079 102.263 92.3688 101.635C92.1398 101.61 91.9107 101.559 91.6816 101.533C91.4865 101.508 91.2829 101.491 91.0114 101.465C91.3677 102.5 91.9107 103.408 91.8768 104.486C91.8428 105.334 91.7156 106.148 90.9351 106.606C90.1715 107.056 89.4674 106.742 88.8736 106.191C88.4579 105.809 88.39 106.267 88.2627 106.437C87.338 107.633 86.286 108.643 84.7505 109.007C84.6911 109.024 84.6317 109.024 84.5808 109.05C84.1312 109.304 83.4356 108.77 83.181 109.296C82.9774 109.728 83.181 110.331 83.1301 110.848C82.8502 113.597 81.7643 116.049 80.3305 118.373C79.1598 120.282 77.6921 121.987 76.2838 123.718C73.0261 127.714 70.8713 132.185 70.5998 137.394C70.3623 142.034 71.2106 146.53 72.8988 150.857C74.7653 155.642 77.4461 159.969 80.8056 163.803C82.9944 166.306 85.6074 168.444 88.0167 170.751C89.5522 172.219 91.0623 173.704 92.5809 175.188C92.8863 175.485 93.1663 175.807 93.3529 176.249C93.1578 176.113 92.9627 175.977 92.776 175.833C85.4038 169.75 77.989 163.71 71.0749 157.101C64.254 150.577 58.6633 143.222 55.168 134.373C53.1405 129.241 52.4533 123.896 52.5127 118.416C52.5721 112.74 53.2338 107.115 53.9379 101.491C54.6675 95.6541 54.8118 89.8513 53.1405 84.1248C52.7417 82.7589 52.2412 81.427 51.6898 80.1205C51.5116 79.6879 51.3759 79.6115 50.9602 79.9169C49.0089 81.3422 46.9135 82.5299 44.8265 83.7346C44.3514 84.006 43.8424 84.2266 43.3164 84.4048C41.8403 84.8968 40.7713 84.2351 40.5423 82.708C40.2962 81.0962 40.7119 79.5267 41.0004 77.9657C41.2973 76.5913 41.6367 75.2509 41.9251 73.9529ZM49.3907 69.0918C49.484 68.9815 49.5773 68.8712 49.6791 68.7694C54.4469 64.1119 58.1882 58.7248 61.1236 52.7608C65.323 44.2262 66.884 35.3439 64.4916 25.9694C62.9051 19.734 60.0801 14.1772 55.3886 9.69783C49.0259 3.62354 41.3567 1.23964 32.6949 2.06255C21.7934 3.09756 13.1231 8.17925 7.18459 17.367C1.20362 26.6142 0.20256 36.5061 4.93643 46.6356C8.29595 53.8297 13.471 59.5986 20.0712 63.9422C27.3417 68.727 35.0533 72.4937 44.0799 72.4513C44.2242 72.4513 44.4108 72.4513 44.4193 72.621C44.4278 72.7398 44.3175 72.9434 44.2157 72.9773C43.4182 73.2742 43.5879 73.9275 43.5624 74.5468C43.5285 75.3018 43.4013 76.0484 43.3249 76.7949C43.1467 78.4408 42.7565 80.0527 42.6886 81.7154C42.6717 82.2329 42.7989 82.4196 43.3249 82.1481C45.6494 80.9434 47.8637 79.5776 50.044 78.0336C49.6537 77.7027 49.3313 77.4142 49.0089 77.1343C48.6102 76.7949 48.4745 76.3538 48.6696 75.8787C48.8817 75.3612 49.3313 75.1661 49.8743 75.217C52.36 75.463 54.5572 74.6061 56.6697 73.4609C56.9496 73.3082 57.2041 73.1046 57.4417 72.8925C58.3494 72.078 58.2815 71.603 57.1787 71.1194C56.6781 70.8988 56.1437 70.7376 55.6262 70.5595C53.9888 69.9911 52.5466 69.253 52.589 67.0727C51.4862 67.8786 50.6123 68.727 49.3907 69.0918ZM87.9658 98.4537C88.7718 98.5215 89.2808 98.9203 89.5607 99.4123C90.1207 100.422 90.986 100.566 91.987 100.532C92.25 100.524 92.513 100.541 92.7675 100.541C97.0687 100.473 101.234 99.6074 105.374 98.5385C114.172 96.2649 121.603 91.6243 128.153 85.4482C131.36 82.4196 134.151 79.0516 136.068 75.0388C136.976 73.13 137.587 71.1279 137.493 68.9985C137.341 65.5626 135.372 63.3144 132.496 61.7534C129.273 60.0058 125.752 59.4035 122.146 59.4629C116.937 59.5562 111.813 60.4215 106.74 61.5753C106.257 61.6856 106.027 61.6007 105.731 61.2359C103.474 58.5042 100.785 56.2476 97.8238 54.3303C95.9319 53.1001 93.828 52.3111 91.5968 52.3281C84.1651 52.3875 78.4726 55.6283 74.8077 62.1182C72.6613 65.9274 72.8225 70.1268 73.4842 74.2753C74.4768 80.5023 77.2001 86.0251 80.7802 91.1493C81.9848 92.8714 83.3337 94.4579 85.0474 95.705C85.251 95.8577 85.6243 95.9256 85.6158 96.197C85.5989 96.5533 85.1917 96.3667 84.9796 96.477C84.6996 96.6297 84.4111 96.6976 84.1142 96.7994C82.689 97.2914 81.4334 98.0634 80.6614 99.4123C80.4154 99.8365 80.3051 100.295 80.9668 100.524C81.5098 100.71 81.7812 100.6 81.9339 99.9892C82.1969 98.9627 82.8332 98.1737 83.7919 97.6901C84.1058 97.5374 84.479 97.4526 84.7759 97.7326C85.0644 97.9956 84.9117 98.3264 84.8099 98.6233C84.6487 99.0984 84.3009 99.5056 84.233 100.074C85.268 99.9383 86.1249 100.1 86.7272 100.999C87.2871 101.83 87.1684 102.789 87.2617 103.807C87.6265 103.383 87.9149 103.069 88.373 102.967C88.8311 102.865 89.1705 103.154 89.6031 103.374C89.4165 101.601 88.7124 100.091 87.9658 98.4537ZM83.3507 102.509C83.1471 102.653 82.7314 102.093 82.6211 102.662C82.3666 103.934 82.3751 105.198 83.0283 106.36C83.3507 106.937 83.8597 107.09 84.513 106.869C86.0315 106.352 86.4387 105.521 85.8619 104.036C85.8449 103.985 85.8194 103.926 85.794 103.875C85.2256 102.432 85.2256 102.432 83.7325 102.5C83.6137 102.509 83.4949 102.509 83.3507 102.509Z" fill="#001F38" fill-opacity="0.5"/>
<path d="M37.0208 54.4066C38.0388 57.1723 39.3368 59.7852 40.4566 62.483C40.9487 63.6623 41.4577 64.833 41.7207 66.0886C41.8988 66.9115 41.848 67.692 41.1353 68.218C40.3888 68.7694 39.6507 68.481 38.9466 68.0398C37.6486 67.2084 36.5033 66.1734 35.3071 65.2063C34.5435 64.587 33.78 63.9762 32.8977 63.4671C33.6867 64.4428 34.4927 65.4099 35.2731 66.394C36.113 67.446 36.2403 68.0653 35.7482 68.6422C35.2816 69.1936 34.5605 69.1936 33.4491 68.5743C28.1469 65.6135 23.1076 62.2455 18.1786 58.6993C17.729 58.377 17.1945 58.08 16.9824 57.1638C21.8266 59.5223 26.3823 61.9655 30.9974 64.3919C30.5562 63.7725 30.0981 63.1533 29.6654 62.5255C29.4194 62.1692 29.1734 61.7959 29.0122 61.3971C28.5626 60.3027 29.2922 59.3695 30.4629 59.5223C31.1416 59.6071 31.727 59.938 32.3039 60.2773C34.3824 61.5074 36.2572 63.026 38.183 64.4767C38.3612 64.6124 38.5054 64.816 38.8702 64.833C38.4375 61.3038 36.8087 58.0122 37.0208 54.4066Z" fill="#001F38" fill-opacity="0.5"/>
<path d="M46.599 8.6797C49.5089 8.70515 52.1898 12.5058 51.2141 15.2375C50.6966 16.7052 49.1866 17.4857 47.7019 16.9003C45.5301 16.035 44.1133 14.3637 43.4431 12.158C42.7729 9.92678 43.9776 8.65424 46.599 8.6797ZM45.4368 10.2322C45.3011 10.2407 45.072 10.2407 44.843 10.2746C43.8843 10.4188 43.8079 10.5715 44.266 11.4199C44.7666 12.3446 45.4453 13.1421 46.1749 13.8802C46.7008 14.4146 47.2438 14.9491 47.948 15.263C48.9066 15.6872 49.6192 15.2545 49.7126 14.2025C49.7465 13.7953 49.7041 13.3966 49.5599 13.0063C48.8981 11.3096 47.3456 10.2237 45.4368 10.2322Z" fill="#001F38" fill-opacity="0.5"/>
<path d="M44.8867 76.0315C44.9631 75.3528 45.0224 74.6571 45.1158 73.97C45.2176 73.2573 45.0988 72.2648 45.6757 71.9424C46.8549 71.2976 47.9578 70.2711 49.5273 70.6359C50.3672 70.8395 51.241 70.9074 52.0469 71.2637C52.2251 71.34 52.4711 71.3994 52.4541 71.6539C52.4287 71.9084 52.1572 71.9 51.9791 71.9339C50.9271 72.129 49.8751 72.3326 48.8146 72.4684C47.9578 72.5787 47.5591 73.0622 47.3979 73.8682C47.1858 74.9201 47.0755 75.9891 47.05 77.058C47.0416 77.5416 46.9228 77.9827 46.5071 78.2797C45.9048 78.6954 45.1158 78.3645 44.9885 77.6095C44.8952 77.1004 44.9122 76.566 44.8867 76.0315Z" fill="#001F38" fill-opacity="0.5"/>
<path d="M53.8274 21.7446C53.7256 20.7775 54.2855 20.0055 54.9982 19.3438C55.8974 18.5124 57.1106 18.8347 57.4669 20.0055C57.8487 21.2611 57.696 22.4657 56.9324 23.5601C56.5507 24.1031 56.0671 24.5188 55.3545 24.4424C54.6164 24.3661 54.3025 23.8147 54.0565 23.1953C53.8868 22.7542 53.8189 22.3046 53.8274 21.7446ZM56.135 21.838C56.0841 21.3714 56.1689 20.8114 55.7108 20.5909C55.363 20.4212 55.0236 20.7775 54.7691 21.0575C54.4891 21.3714 54.6673 21.7362 54.7606 22.0416C54.9133 22.4997 54.8879 23.3311 55.4478 23.2632C56.0501 23.1869 56.0841 22.3979 56.135 21.838Z" fill="#001F38" fill-opacity="0.5"/>
<path d="M89.1875 91.7516C88.39 88.5024 88.0337 85.2023 86.6 82.1482C86.2776 82.6317 86.1758 83.0389 86.1249 84.0994C86.0655 85.4653 85.9976 86.8311 86.074 88.197C86.1164 88.9266 86.0316 89.6053 85.1663 89.8598C84.2755 90.1143 83.8767 89.5204 83.5289 88.9011C81.9 85.9573 80.4493 82.9117 78.5999 80.0951C78.0569 79.2722 77.531 78.4408 76.759 77.7791C77.5734 80.8586 79.2871 83.4886 80.9923 86.11C82.706 88.7399 84.8099 91.0475 87.1175 93.3296C86.3879 93.5671 85.9552 93.2448 85.5395 92.9648C83.8937 91.8534 82.4345 90.513 81.1535 89.0029C78.8035 86.2373 76.988 83.1407 75.5543 79.8152C75.164 78.9074 74.9095 77.9487 74.9435 76.9392C74.9859 75.7091 75.953 75.1237 77.0644 75.6666C77.8703 76.0654 78.3963 76.778 78.9393 77.4567C80.6869 79.6794 82.0697 82.1312 83.461 84.583C83.6137 84.8544 83.7665 85.1344 84.0549 85.6349C84.1737 84.566 84.2585 83.7346 84.3518 82.9032C84.4282 82.1736 84.5554 81.461 84.8778 80.7993C85.1832 80.1715 85.6159 79.6709 86.3794 79.637C87.1684 79.6031 87.7029 80.0188 88.0676 80.6635C88.7379 81.8512 88.9669 83.1662 89.1451 84.4896C89.4675 86.7972 89.6456 89.1132 89.2638 91.4293C89.2554 91.548 89.2129 91.6498 89.1875 91.7516Z" fill="#001F38" fill-opacity="0.5"/>
<path d="M129.604 72.4004C126.338 72.1544 123.81 70.5765 121.841 68.0229C121.383 67.429 121.214 66.7164 121.341 65.9699C121.477 65.1894 121.969 64.7991 122.732 64.9009C122.91 64.9264 123.046 64.9433 123.224 64.884C126.219 63.849 129.112 64.604 131.216 66.9879C131.538 67.3527 131.844 67.7514 132.081 68.1756C132.624 69.1427 132.955 70.1608 132.336 71.2212C131.725 72.2647 130.698 72.4004 129.604 72.4004ZM122.783 66.4874C123.886 67.8872 125.209 68.8543 126.669 69.6263C127.678 70.1608 128.764 70.4407 129.918 70.4238C130.647 70.4153 130.775 70.0505 130.512 69.4736C130.367 69.1597 130.181 68.8628 129.969 68.5913C128.45 66.6316 125.362 65.6984 122.783 66.4874Z" fill="#001F38" fill-opacity="0.5"/>
</svg>
