<svg width="420" height="433" viewBox="0 0 467 480" fill="none" xmlns="http://www.w3.org/2000/svg">
<g filter="url(#filter0_ddddd_57_245)">
<rect x="95" y="57" width="368" height="383" rx="50" fill="white"/>
</g>
<path d="M250.853 129.76L255.269 128.2H258.149V145H254.837V131.704L251.669 132.592L250.853 129.76ZM271.654 139.072H273.454V142.144H271.654V145H268.318V142.144H260.374V139.072L265.966 128.2H269.518L263.95 139.072H268.318V135.088H271.654V139.072ZM279.048 134.68C279.048 135.24 278.848 135.72 278.448 136.12C278.048 136.52 277.568 136.72 277.008 136.72C276.448 136.72 275.968 136.52 275.568 136.12C275.168 135.72 274.968 135.24 274.968 134.68C274.968 134.12 275.168 133.64 275.568 133.24C275.968 132.84 276.448 132.64 277.008 132.64C277.568 132.64 278.048 132.84 278.448 133.24C278.848 133.64 279.048 134.12 279.048 134.68ZM279.048 143.272C279.048 143.832 278.848 144.312 278.448 144.712C278.048 145.112 277.568 145.312 277.008 145.312C276.448 145.312 275.968 145.112 275.568 144.712C275.168 144.312 274.968 143.832 274.968 143.272C274.968 142.712 275.168 142.232 275.568 141.832C275.968 141.432 276.448 141.232 277.008 141.232C277.568 141.232 278.048 141.432 278.448 141.832C278.848 142.232 279.048 142.712 279.048 143.272ZM291.83 130.936L288.686 135.016C289.854 135.352 290.782 135.944 291.47 136.792C292.174 137.64 292.526 138.648 292.526 139.816C292.526 141.544 291.942 142.896 290.774 143.872C289.638 144.848 288.222 145.336 286.526 145.336C285.198 145.336 284.022 145.032 282.998 144.424C281.974 143.8 281.23 142.92 280.766 141.784L283.598 140.152C283.998 141.448 284.974 142.096 286.526 142.096C287.374 142.096 288.03 141.896 288.494 141.496C288.974 141.08 289.214 140.52 289.214 139.816C289.214 139.128 288.974 138.576 288.494 138.16C288.03 137.744 287.374 137.536 286.526 137.536H285.806L284.534 135.616L287.846 131.296H281.27V128.2H291.83V130.936ZM300.852 145.336C298.756 145.336 297.108 144.544 295.908 142.96C294.724 141.344 294.132 139.224 294.132 136.6C294.132 133.976 294.724 131.864 295.908 130.264C297.108 128.664 298.756 127.864 300.852 127.864C302.98 127.864 304.628 128.664 305.796 130.264C306.98 131.864 307.572 133.976 307.572 136.6C307.572 139.224 306.98 141.344 305.796 142.96C304.628 144.544 302.98 145.336 300.852 145.336ZM304.284 136.6C304.284 134.808 303.988 133.44 303.396 132.496C302.82 131.552 301.972 131.08 300.852 131.08C299.732 131.08 298.884 131.552 298.308 132.496C297.732 133.44 297.444 134.808 297.444 136.6C297.444 138.392 297.732 139.76 298.308 140.704C298.884 141.632 299.732 142.096 300.852 142.096C301.972 142.096 302.82 141.624 303.396 140.68C303.988 139.736 304.284 138.376 304.284 136.6ZM235.322 174H233.306L228.434 157.2H230.21L234.362 171.72L238.73 157.2H240.698L245.066 171.72L249.218 157.2H250.994L246.122 174H244.106L239.714 159.408L235.322 174ZM257.508 161.712C259.3 161.712 260.732 162.344 261.804 163.608C262.908 164.856 263.46 166.336 263.46 168.048C263.46 168.128 263.444 168.376 263.412 168.792H252.876C253.036 169.992 253.548 170.952 254.412 171.672C255.276 172.392 256.356 172.752 257.652 172.752C259.476 172.752 260.764 172.072 261.516 170.712L262.908 171.528C262.38 172.392 261.652 173.072 260.724 173.568C259.812 174.048 258.78 174.288 257.628 174.288C255.74 174.288 254.204 173.696 253.02 172.512C251.836 171.328 251.244 169.824 251.244 168C251.244 166.192 251.828 164.696 252.996 163.512C254.164 162.312 255.668 161.712 257.508 161.712ZM257.508 163.248C256.26 163.248 255.212 163.616 254.364 164.352C253.532 165.088 253.036 166.056 252.876 167.256H261.828C261.652 165.976 261.164 164.992 260.364 164.304C259.532 163.6 258.58 163.248 257.508 163.248ZM267.564 174H265.98V156.48H267.564V174ZM276.517 174.288C274.709 174.288 273.205 173.688 272.005 172.488C270.805 171.256 270.205 169.76 270.205 168C270.205 166.224 270.805 164.736 272.005 163.536C273.205 162.32 274.709 161.712 276.517 161.712C277.701 161.712 278.765 162 279.709 162.576C280.653 163.136 281.341 163.896 281.773 164.856L280.477 165.6C280.157 164.88 279.637 164.312 278.917 163.896C278.213 163.464 277.413 163.248 276.517 163.248C275.189 163.248 274.069 163.712 273.157 164.64C272.245 165.552 271.789 166.672 271.789 168C271.789 169.312 272.245 170.44 273.157 171.384C274.069 172.296 275.189 172.752 276.517 172.752C277.397 172.752 278.189 172.544 278.893 172.128C279.613 171.712 280.173 171.136 280.573 170.4L281.893 171.168C281.397 172.128 280.669 172.888 279.709 173.448C278.749 174.008 277.685 174.288 276.517 174.288ZM294.106 172.488C292.874 173.688 291.386 174.288 289.642 174.288C287.866 174.288 286.37 173.688 285.154 172.488C283.938 171.272 283.33 169.776 283.33 168C283.33 166.224 283.938 164.736 285.154 163.536C286.37 162.32 287.866 161.712 289.642 161.712C291.402 161.712 292.89 162.32 294.106 163.536C295.338 164.736 295.954 166.224 295.954 168C295.954 169.76 295.338 171.256 294.106 172.488ZM286.282 171.384C287.194 172.296 288.314 172.752 289.642 172.752C290.97 172.752 292.09 172.296 293.002 171.384C293.914 170.44 294.37 169.312 294.37 168C294.37 166.672 293.914 165.552 293.002 164.64C292.09 163.712 290.97 163.248 289.642 163.248C288.314 163.248 287.194 163.712 286.282 164.64C285.37 165.552 284.914 166.672 284.914 168C284.914 169.312 285.37 170.44 286.282 171.384ZM311.397 161.712C312.757 161.712 313.845 162.144 314.661 163.008C315.477 163.872 315.885 165.04 315.885 166.512V174H314.301V166.512C314.301 165.488 314.037 164.688 313.509 164.112C312.981 163.536 312.269 163.248 311.373 163.248C310.333 163.248 309.517 163.592 308.925 164.28C308.333 164.968 308.037 165.992 308.037 167.352V174H306.453V166.512C306.453 165.472 306.205 164.672 305.709 164.112C305.213 163.536 304.525 163.248 303.645 163.248C302.637 163.248 301.805 163.6 301.149 164.304C300.509 165.008 300.189 166.024 300.189 167.352V174H298.605V162H300.189V163.752C301.053 162.392 302.277 161.712 303.861 161.712C305.605 161.712 306.821 162.44 307.509 163.896C308.373 162.44 309.669 161.712 311.397 161.712ZM324.492 161.712C326.284 161.712 327.716 162.344 328.788 163.608C329.892 164.856 330.444 166.336 330.444 168.048C330.444 168.128 330.428 168.376 330.396 168.792H319.86C320.02 169.992 320.532 170.952 321.396 171.672C322.26 172.392 323.34 172.752 324.636 172.752C326.46 172.752 327.748 172.072 328.5 170.712L329.892 171.528C329.364 172.392 328.636 173.072 327.708 173.568C326.796 174.048 325.764 174.288 324.612 174.288C322.724 174.288 321.188 173.696 320.004 172.512C318.82 171.328 318.228 169.824 318.228 168C318.228 166.192 318.812 164.696 319.98 163.512C321.148 162.312 322.652 161.712 324.492 161.712ZM324.492 163.248C323.244 163.248 322.196 163.616 321.348 164.352C320.516 165.088 320.02 166.056 319.86 167.256H328.812C328.636 165.976 328.148 164.992 327.348 164.304C326.516 163.6 325.564 163.248 324.492 163.248Z" fill="#001F38"/>
<rect x="110" y="71" width="338" height="355" rx="32" stroke="url(#paint0_linear_57_245)" stroke-width="10"/>
<path d="M259.925 267.953C251.145 267.97 243.687 264.212 236.671 259.478C229.732 254.786 224.234 248.661 220.892 240.933C215.624 228.75 217.719 217.424 225.829 207.227C231.929 199.558 240.099 195.231 249.847 194.205C264.846 192.627 277.3 200.253 282.814 214.353C288.133 227.936 286.106 240.653 277.927 252.547C276.163 255.117 274.161 257.493 271.963 259.698C271.556 260.106 271.539 260.369 271.836 260.861C272.413 261.811 273.185 262.422 274.245 262.727C274.941 262.931 275.637 263.16 276.282 263.474C278.343 264.466 278.699 266.434 277.113 268.089C276.061 269.183 274.721 269.819 273.321 270.337C272.455 270.659 271.548 270.888 270.648 271.1C270.105 271.228 269.961 271.414 270.292 271.915C274.169 277.667 274.882 284.148 274.576 290.842C274.339 295.983 273.372 301.048 272.998 306.18C272.498 313.077 272.379 319.958 274.754 326.6C277.028 332.955 280.498 338.63 284.85 343.771C287.09 346.41 289.474 348.895 292.12 351.194C291.925 350.83 291.739 350.465 291.535 350.1C288.837 345.358 287.285 340.259 286.878 334.821C286.386 328.127 288.422 322.24 292.579 317.014C294.309 314.834 296.15 312.721 297.423 310.21C298.169 308.725 298.941 307.215 299.06 305.561C299.179 303.881 299.306 302.159 298.721 300.505C298.339 299.419 298.288 298.282 298.381 297.145C298.415 296.763 298.373 296.534 297.974 296.314C296.447 295.474 296.057 294.133 296.846 292.564C297.542 291.181 298.729 290.401 300.155 289.909C300.426 289.815 300.714 289.756 300.994 289.68C295.429 285.064 292.46 278.897 290.449 272.195C289.168 267.944 288.744 263.558 289.728 259.189C291.009 253.488 294.64 249.569 299.688 246.863C302.997 245.09 306.492 244.038 310.301 244.377C312.99 244.614 315.467 245.403 317.571 247.176C320.235 249.416 322.645 251.868 324.35 254.939C324.486 255.177 324.536 255.516 324.944 255.16C326.937 253.412 329.406 252.725 331.9 252.148C337.483 250.85 343.056 250.672 348.588 252.402C350.632 253.039 352.516 253.997 354.136 255.414C357.724 258.553 358.556 262.481 357.351 266.96C356.367 270.625 354.39 273.781 351.99 276.64C345.754 284.063 338.297 289.892 329.135 293.234C323.094 295.44 316.808 296.263 310.369 295.635C310.14 295.61 309.911 295.559 309.682 295.533C309.487 295.508 309.283 295.491 309.011 295.465C309.368 296.5 309.911 297.408 309.877 298.486C309.843 299.334 309.716 300.148 308.935 300.606C308.172 301.056 307.467 300.742 306.874 300.191C306.458 299.809 306.39 300.267 306.263 300.437C305.338 301.633 304.286 302.643 302.75 303.007C302.691 303.024 302.632 303.024 302.581 303.05C302.131 303.304 301.436 302.77 301.181 303.296C300.977 303.728 301.181 304.331 301.13 304.848C300.85 307.597 299.764 310.049 298.331 312.373C297.16 314.282 295.692 315.987 294.284 317.718C291.026 321.714 288.871 326.185 288.6 331.394C288.362 336.034 289.211 340.53 290.899 344.857C292.765 349.642 295.446 353.969 298.806 357.803C300.994 360.306 303.607 362.444 306.017 364.751C307.552 366.219 309.062 367.704 310.581 369.188C310.886 369.485 311.166 369.807 311.353 370.249C311.158 370.113 310.963 369.977 310.776 369.833C303.404 363.75 295.989 357.71 289.075 351.101C282.254 344.577 276.663 337.222 273.168 328.373C271.14 323.241 270.453 317.896 270.513 312.416C270.572 306.74 271.234 301.115 271.938 295.491C272.668 289.654 272.812 283.851 271.14 278.125C270.742 276.759 270.241 275.427 269.69 274.121C269.512 273.688 269.376 273.612 268.96 273.917C267.009 275.342 264.913 276.53 262.826 277.735C262.351 278.006 261.842 278.227 261.316 278.405C259.84 278.897 258.771 278.235 258.542 276.708C258.296 275.096 258.712 273.527 259 271.966C259.297 270.591 259.637 269.251 259.925 267.953ZM267.391 263.092C267.484 262.981 267.577 262.871 267.679 262.769C272.447 258.112 276.188 252.725 279.124 246.761C283.323 238.226 284.884 229.344 282.492 219.969C280.905 213.734 278.08 208.177 273.389 203.698C267.026 197.624 259.357 195.24 250.695 196.063C239.793 197.098 231.123 202.179 225.185 211.367C219.204 220.614 218.203 230.506 222.936 240.636C226.296 247.83 231.471 253.599 238.071 257.942C245.342 262.727 253.053 266.494 262.08 266.451C262.224 266.451 262.411 266.451 262.419 266.621C262.428 266.74 262.317 266.943 262.216 266.977C261.418 267.274 261.588 267.927 261.562 268.547C261.529 269.302 261.401 270.048 261.325 270.795C261.147 272.441 260.756 274.053 260.689 275.715C260.672 276.233 260.799 276.42 261.325 276.148C263.649 274.943 265.864 273.578 268.044 272.034C267.654 271.703 267.331 271.414 267.009 271.134C266.61 270.795 266.474 270.354 266.67 269.879C266.882 269.361 267.331 269.166 267.874 269.217C270.36 269.463 272.557 268.606 274.67 267.461C274.95 267.308 275.204 267.105 275.442 266.892C276.349 266.078 276.282 265.603 275.179 265.119C274.678 264.899 274.144 264.738 273.626 264.559C271.989 263.991 270.547 263.253 270.589 261.073C269.486 261.879 268.612 262.727 267.391 263.092ZM305.966 292.454C306.772 292.522 307.281 292.92 307.561 293.412C308.121 294.422 308.986 294.566 309.987 294.532C310.25 294.524 310.513 294.541 310.768 294.541C315.069 294.473 319.234 293.607 323.374 292.538C332.172 290.265 339.603 285.624 346.153 279.448C349.36 276.42 352.151 273.052 354.068 269.039C354.976 267.13 355.587 265.128 355.493 262.998C355.341 259.563 353.372 257.314 350.496 255.753C347.273 254.006 343.752 253.403 340.146 253.463C334.937 253.556 329.813 254.422 324.74 255.575C324.257 255.686 324.027 255.601 323.731 255.236C321.474 252.504 318.785 250.248 315.824 248.33C313.932 247.1 311.828 246.311 309.597 246.328C302.165 246.387 296.473 249.628 292.808 256.118C290.661 259.927 290.823 264.127 291.484 268.275C292.477 274.502 295.2 280.025 298.78 285.149C299.985 286.871 301.334 288.458 303.047 289.705C303.251 289.858 303.624 289.926 303.616 290.197C303.599 290.553 303.192 290.367 302.98 290.477C302.7 290.63 302.411 290.698 302.114 290.799C300.689 291.291 299.433 292.063 298.661 293.412C298.415 293.836 298.305 294.295 298.967 294.524C299.51 294.71 299.781 294.6 299.934 293.989C300.197 292.963 300.833 292.174 301.792 291.69C302.106 291.537 302.479 291.453 302.776 291.733C303.064 291.996 302.912 292.326 302.81 292.623C302.649 293.098 302.301 293.506 302.233 294.074C303.268 293.938 304.125 294.1 304.727 294.999C305.287 295.83 305.168 296.789 305.262 297.807C305.626 297.383 305.915 297.069 306.373 296.967C306.831 296.865 307.17 297.154 307.603 297.374C307.416 295.601 306.712 294.091 305.966 292.454ZM301.351 296.509C301.147 296.653 300.731 296.093 300.621 296.662C300.367 297.934 300.375 299.198 301.028 300.36C301.351 300.937 301.86 301.09 302.513 300.869C304.032 300.352 304.439 299.521 303.862 298.036C303.845 297.985 303.819 297.926 303.794 297.875C303.226 296.432 303.226 296.432 301.732 296.5C301.614 296.509 301.495 296.509 301.351 296.509Z" fill="#001F38" fill-opacity="0.5"/>
<path d="M255.021 248.407C256.039 251.172 257.337 253.785 258.457 256.483C258.949 257.662 259.458 258.833 259.721 260.089C259.899 260.911 259.848 261.692 259.135 262.218C258.389 262.769 257.651 262.481 256.947 262.04C255.649 261.208 254.503 260.173 253.307 259.206C252.544 258.587 251.78 257.976 250.898 257.467C251.687 258.443 252.493 259.41 253.273 260.394C254.113 261.446 254.24 262.065 253.748 262.642C253.282 263.194 252.561 263.194 251.449 262.574C246.147 259.614 241.108 256.245 236.179 252.699C235.729 252.377 235.195 252.08 234.982 251.164C239.827 253.522 244.382 255.966 248.997 258.392C248.556 257.773 248.098 257.153 247.665 256.525C247.419 256.169 247.173 255.796 247.012 255.397C246.563 254.303 247.292 253.37 248.463 253.522C249.142 253.607 249.727 253.938 250.304 254.277C252.382 255.507 254.257 257.026 256.183 258.477C256.361 258.612 256.505 258.816 256.87 258.833C256.438 255.304 254.809 252.012 255.021 248.407Z" fill="#001F38" fill-opacity="0.5"/>
<path d="M264.599 202.68C267.509 202.705 270.19 206.506 269.214 209.238C268.697 210.705 267.187 211.486 265.702 210.9C263.53 210.035 262.113 208.364 261.443 206.158C260.773 203.927 261.978 202.654 264.599 202.68ZM263.437 204.232C263.301 204.241 263.072 204.241 262.843 204.275C261.884 204.419 261.808 204.572 262.266 205.42C262.767 206.345 263.445 207.142 264.175 207.88C264.701 208.415 265.244 208.949 265.948 209.263C266.907 209.687 267.619 209.255 267.713 208.203C267.746 207.795 267.704 207.397 267.56 207.006C266.898 205.31 265.346 204.224 263.437 204.232Z" fill="#001F38" fill-opacity="0.5"/>
<path d="M262.887 270.031C262.963 269.353 263.022 268.657 263.116 267.97C263.218 267.257 263.099 266.265 263.676 265.942C264.855 265.298 265.958 264.271 267.527 264.636C268.367 264.84 269.241 264.907 270.047 265.264C270.225 265.34 270.471 265.399 270.454 265.654C270.429 265.908 270.157 265.9 269.979 265.934C268.927 266.129 267.875 266.333 266.815 266.468C265.958 266.579 265.559 267.062 265.398 267.868C265.186 268.92 265.075 269.989 265.05 271.058C265.042 271.542 264.923 271.983 264.507 272.28C263.905 272.695 263.116 272.365 262.989 271.609C262.895 271.1 262.912 270.566 262.887 270.031Z" fill="#001F38" fill-opacity="0.5"/>
<path d="M271.827 215.745C271.726 214.778 272.286 214.005 272.998 213.344C273.897 212.512 275.111 212.835 275.467 214.005C275.849 215.261 275.696 216.466 274.932 217.56C274.551 218.103 274.067 218.519 273.354 218.442C272.616 218.366 272.302 217.815 272.056 217.195C271.887 216.754 271.819 216.305 271.827 215.745ZM274.135 215.838C274.084 215.371 274.169 214.811 273.711 214.591C273.363 214.421 273.024 214.778 272.769 215.057C272.489 215.371 272.667 215.736 272.761 216.042C272.913 216.5 272.888 217.331 273.448 217.263C274.05 217.187 274.084 216.398 274.135 215.838Z" fill="#001F38" fill-opacity="0.5"/>
<path d="M307.187 285.752C306.39 282.502 306.034 279.202 304.6 276.148C304.278 276.632 304.176 277.039 304.125 278.099C304.066 279.465 303.998 280.831 304.074 282.197C304.116 282.927 304.032 283.605 303.166 283.86C302.275 284.114 301.877 283.52 301.529 282.901C299.9 279.957 298.449 276.912 296.6 274.095C296.057 273.272 295.531 272.441 294.759 271.779C295.573 274.859 297.287 277.489 298.992 280.11C300.706 282.74 302.81 285.047 305.117 287.33C304.388 287.567 303.955 287.245 303.54 286.965C301.894 285.853 300.435 284.513 299.153 283.003C296.804 280.237 294.988 277.141 293.554 273.815C293.164 272.907 292.91 271.949 292.943 270.939C292.986 269.709 293.953 269.124 295.064 269.667C295.87 270.065 296.396 270.778 296.939 271.457C298.687 273.679 300.07 276.131 301.461 278.583C301.614 278.854 301.766 279.134 302.055 279.635C302.174 278.566 302.258 277.735 302.352 276.903C302.428 276.174 302.555 275.461 302.878 274.799C303.183 274.171 303.616 273.671 304.379 273.637C305.168 273.603 305.703 274.019 306.068 274.664C306.738 275.851 306.967 277.166 307.145 278.49C307.467 280.797 307.646 283.113 307.264 285.429C307.255 285.548 307.213 285.65 307.187 285.752Z" fill="#001F38" fill-opacity="0.5"/>
<path d="M347.604 266.4C344.338 266.154 341.81 264.576 339.841 262.023C339.383 261.429 339.214 260.716 339.341 259.97C339.477 259.189 339.969 258.799 340.732 258.901C340.91 258.926 341.046 258.943 341.224 258.884C344.219 257.849 347.112 258.604 349.216 260.988C349.538 261.353 349.844 261.751 350.081 262.176C350.624 263.143 350.955 264.161 350.336 265.221C349.725 266.265 348.698 266.4 347.604 266.4ZM340.783 260.487C341.886 261.887 343.209 262.854 344.669 263.626C345.678 264.161 346.764 264.441 347.918 264.424C348.647 264.415 348.775 264.05 348.512 263.474C348.367 263.16 348.181 262.863 347.969 262.591C346.45 260.632 343.362 259.698 340.783 260.487Z" fill="#001F38" fill-opacity="0.5"/>
<defs>
<filter id="filter0_ddddd_57_245" x="0.560715" y="0.991802" width="556.879" height="571.879" filterUnits="userSpaceOnUse" color-interpolation-filters="sRGB">
<feFlood flood-opacity="0" result="BackgroundImageFix"/>
<feColorMatrix in="SourceAlpha" type="matrix" values="0 0 0 0 0 0 0 0 0 0 0 0 0 0 0 0 0 0 127 0" result="hardAlpha"/>

<feColorMatrix type="matrix" values="0 0 0 0 0.00784314 0 0 0 0 0.0117647 0 0 0 0 0.160784 0 0 0 0.0165487 0"/>
<feBlend mode="normal" in2="BackgroundImageFix" result="effect1_dropShadow_57_245"/>
<feColorMatrix in="SourceAlpha" type="matrix" values="0 0 0 0 0 0 0 0 0 0 0 0 0 0 0 0 0 0 127 0" result="hardAlpha"/>


<feColorMatrix type="matrix" values="0 0 0 0 0.00784314 0 0 0 0 0.0117647 0 0 0 0 0.160784 0 0 0 0.0262803 0"/>
<feBlend mode="normal" in2="effect1_dropShadow_57_245" result="effect2_dropShadow_57_245"/>
<feColorMatrix in="SourceAlpha" type="matrix" values="0 0 0 0 0 0 0 0 0 0 0 0 0 0 0 0 0 0 127 0" result="hardAlpha"/>


<feColorMatrix type="matrix" values="0 0 0 0 0.00784314 0 0 0 0 0.0117647 0 0 0 0 0.160784 0 0 0 0.0336338 0"/>
<feBlend mode="normal" in2="effect2_dropShadow_57_245" result="effect3_dropShadow_57_245"/>
<feColorMatrix in="SourceAlpha" type="matrix" values="0 0 0 0 0 0 0 0 0 0 0 0 0 0 0 0 0 0 127 0" result="hardAlpha"/>


<feColorMatrix type="matrix" values="0 0 0 0 0.00784314 0 0 0 0 0.0117647 0 0 0 0 0.160784 0 0 0 0.0405744 0"/>
<feBlend mode="normal" in2="effect3_dropShadow_57_245" result="effect4_dropShadow_57_245"/>
<feColorMatrix in="SourceAlpha" type="matrix" values="0 0 0 0 0 0 0 0 0 0 0 0 0 0 0 0 0 0 127 0" result="hardAlpha"/>


<feColorMatrix type="matrix" values="0 0 0 0 0.00784314 0 0 0 0 0.0117647 0 0 0 0 0.160784 0 0 0 0.0492964 0"/>
<feBlend mode="normal" in2="effect4_dropShadow_57_245" result="effect5_dropShadow_57_245"/>
<feBlend mode="normal" in="SourceGraphic" in2="effect5_dropShadow_57_245" result="shape"/>
</filter>
<linearGradient id="paint0_linear_57_245" x1="442.626" y1="75.53" x2="101.55" y2="405.515" gradientUnits="userSpaceOnUse">
<stop stop-color="#001F38"/>
<stop offset="0.25" stop-color="#1E9AFF"/>
<stop offset="0.515625" stop-color="#001F38"/>
<stop offset="0.78125" stop-color="#1E9AFF"/>
<stop offset="1" stop-color="#001F38"/>
</linearGradient>
</defs>
</svg>
