<svg width="1370" height="680" viewBox="0 0 1400 680" fill="none" xmlns="http://www.w3.org/2000/svg">
<path d="M-293.412 636.583L-294.604 658.464L-278.377 643.738C-247.736 615.932 -234.021 569.496 -221.511 518.005C-219.49 509.688 -217.494 501.198 -215.464 492.566C-204.695 446.764 -192.987 396.969 -171.701 347.879C-146.533 289.833 -108.079 233.147 -42.2279 186.787C23.7131 140.363 117.713 103.882 254.598 87.3033C374.332 72.8017 535.655 82.8436 698.914 93.0061C745.254 95.8905 791.749 98.7847 837.493 101.13C940.573 106.415 1039.7 108.882 1123.74 101.908C1207.38 94.9661 1277.84 78.567 1322.17 44.7531C1355.86 19.0576 1378.43 0.480806 1392.27 -13.9476C1405.71 -27.967 1413.21 -40.3468 1411.24 -53.309C1410.28 -59.6353 1407.19 -64.9836 1403.49 -69.6627C1399.82 -74.2866 1395.07 -78.8411 1390.1 -83.4585C1389.01 -84.4694 1387.9 -85.4959 1386.76 -86.5428C1377.31 -95.2603 1366.33 -105.383 1355.33 -119.539L1352.49 -123.185L1347.88 -123.008L-247.17 -61.8408L-255.365 -61.5265L-255.812 -53.3372L-293.412 636.583Z" stroke="url(#paint0_linear_57_323)" stroke-width="18"/>
<defs>
<linearGradient id="paint0_linear_57_323" x1="1400" y1="31.5" x2="-26.0001" y2="170" gradientUnits="userSpaceOnUse">
<stop stop-color="#001F38"/>
<stop offset="0.25" stop-color="#1E9AFF"/>
<stop offset="0.479167" stop-color="#001F38"/>
<stop offset="0.770833" stop-color="#1E9AFF"/>
<stop offset="1" stop-color="#001F38"/>
</linearGradient>
</defs>
</svg>
