<svg width="420" height="433" viewBox="0 0 467 480" fill="none" xmlns="http://www.w3.org/2000/svg">
<g filter="url(#filter0_ddddd_57_225)">
<rect x="95" y="57" width="368" height="383" rx="50" fill="white"/>
</g>
<path d="M249.955 124.76L254.371 123.2H257.251V140H253.939V126.704L250.771 127.592L249.955 124.76ZM263.965 129.32H265.693C267.325 129.32 268.685 129.808 269.773 130.784C270.877 131.744 271.429 133.088 271.429 134.816C271.429 136.544 270.845 137.896 269.677 138.872C268.541 139.848 267.125 140.336 265.429 140.336C264.053 140.336 262.845 140.032 261.805 139.424C260.781 138.8 260.037 137.904 259.573 136.736L262.405 135.08C262.805 136.424 263.813 137.096 265.429 137.096C266.277 137.096 266.933 136.896 267.397 136.496C267.877 136.08 268.117 135.52 268.117 134.816C268.117 134.128 267.885 133.576 267.421 133.16C266.957 132.744 266.325 132.536 265.525 132.536H260.437L261.109 123.2H270.637V126.296H264.181L263.965 129.32ZM276.908 129.68C276.908 130.24 276.708 130.72 276.308 131.12C275.908 131.52 275.428 131.72 274.868 131.72C274.308 131.72 273.828 131.52 273.428 131.12C273.028 130.72 272.828 130.24 272.828 129.68C272.828 129.12 273.028 128.64 273.428 128.24C273.828 127.84 274.308 127.64 274.868 127.64C275.428 127.64 275.908 127.84 276.308 128.24C276.708 128.64 276.908 129.12 276.908 129.68ZM276.908 138.272C276.908 138.832 276.708 139.312 276.308 139.712C275.908 140.112 275.428 140.312 274.868 140.312C274.308 140.312 273.828 140.112 273.428 139.712C273.028 139.312 272.828 138.832 272.828 138.272C272.828 137.712 273.028 137.232 273.428 136.832C273.828 136.432 274.308 136.232 274.868 136.232C275.428 136.232 275.908 136.432 276.308 136.832C276.708 137.232 276.908 137.712 276.908 138.272ZM285.634 140.336C283.538 140.336 281.89 139.544 280.69 137.96C279.506 136.344 278.914 134.224 278.914 131.6C278.914 128.976 279.506 126.864 280.69 125.264C281.89 123.664 283.538 122.864 285.634 122.864C287.762 122.864 289.41 123.664 290.578 125.264C291.762 126.864 292.354 128.976 292.354 131.6C292.354 134.224 291.762 136.344 290.578 137.96C289.41 139.544 287.762 140.336 285.634 140.336ZM289.066 131.6C289.066 129.808 288.77 128.44 288.178 127.496C287.602 126.552 286.754 126.08 285.634 126.08C284.514 126.08 283.666 126.552 283.09 127.496C282.514 128.44 282.226 129.808 282.226 131.6C282.226 133.392 282.514 134.76 283.09 135.704C283.666 136.632 284.514 137.096 285.634 137.096C286.754 137.096 287.602 136.624 288.178 135.68C288.77 134.736 289.066 133.376 289.066 131.6ZM300.751 140.336C298.655 140.336 297.007 139.544 295.807 137.96C294.623 136.344 294.031 134.224 294.031 131.6C294.031 128.976 294.623 126.864 295.807 125.264C297.007 123.664 298.655 122.864 300.751 122.864C302.879 122.864 304.527 123.664 305.695 125.264C306.879 126.864 307.471 128.976 307.471 131.6C307.471 134.224 306.879 136.344 305.695 137.96C304.527 139.544 302.879 140.336 300.751 140.336ZM304.183 131.6C304.183 129.808 303.887 128.44 303.295 127.496C302.719 126.552 301.871 126.08 300.751 126.08C299.631 126.08 298.783 126.552 298.207 127.496C297.631 128.44 297.343 129.808 297.343 131.6C297.343 133.392 297.631 134.76 298.207 135.704C298.783 136.632 299.631 137.096 300.751 137.096C301.871 137.096 302.719 136.624 303.295 135.68C303.887 134.736 304.183 133.376 304.183 131.6ZM159.498 160.288C160.33 160.64 160.986 161.176 161.466 161.896C161.946 162.616 162.186 163.424 162.186 164.32C162.186 165.616 161.73 166.72 160.818 167.632C159.906 168.544 158.802 169 157.506 169H150.186V152.2H156.954C158.186 152.2 159.25 152.648 160.146 153.544C161.026 154.424 161.466 155.48 161.466 156.712C161.466 158.28 160.81 159.472 159.498 160.288ZM156.954 153.784H151.866V159.64H156.954C157.722 159.64 158.386 159.36 158.946 158.8C159.506 158.208 159.786 157.512 159.786 156.712C159.786 155.928 159.506 155.24 158.946 154.648C158.386 154.072 157.722 153.784 156.954 153.784ZM151.866 167.416H157.506C158.338 167.416 159.042 167.12 159.618 166.528C160.21 165.936 160.506 165.2 160.506 164.32C160.506 163.456 160.21 162.728 159.618 162.136C159.042 161.528 158.338 161.224 157.506 161.224H151.866V167.416ZM166.412 161.56H169.7C170.804 161.56 171.748 161.912 172.532 162.616C173.316 163.304 173.708 164.192 173.708 165.28C173.708 166.384 173.316 167.28 172.532 167.968C171.78 168.656 170.836 169 169.7 169H164.828V157H166.412V161.56ZM175.388 169V157H176.972V169H175.388ZM166.412 167.464H169.7C170.388 167.464 170.964 167.264 171.428 166.864C171.892 166.448 172.124 165.92 172.124 165.28C172.124 164.64 171.892 164.12 171.428 163.72C170.964 163.304 170.388 163.096 169.7 163.096H166.412V167.464ZM185.888 156.712C187.68 156.712 189.112 157.344 190.184 158.608C191.288 159.856 191.84 161.336 191.84 163.048C191.84 163.128 191.824 163.376 191.792 163.792H181.256C181.416 164.992 181.928 165.952 182.792 166.672C183.656 167.392 184.736 167.752 186.032 167.752C187.856 167.752 189.144 167.072 189.896 165.712L191.288 166.528C190.76 167.392 190.032 168.072 189.104 168.568C188.192 169.048 187.16 169.288 186.008 169.288C184.12 169.288 182.584 168.696 181.4 167.512C180.216 166.328 179.624 164.824 179.624 163C179.624 161.192 180.208 159.696 181.376 158.512C182.544 157.312 184.048 156.712 185.888 156.712ZM185.888 158.248C184.64 158.248 183.592 158.616 182.744 159.352C181.912 160.088 181.416 161.056 181.256 162.256H190.208C190.032 160.976 189.544 159.992 188.744 159.304C187.912 158.6 186.96 158.248 185.888 158.248ZM200.317 162.832C201.709 163.36 202.405 164.32 202.405 165.712C202.405 166.72 202.013 167.568 201.229 168.256C200.477 168.944 199.373 169.288 197.917 169.288C195.485 169.288 193.901 168.328 193.165 166.408L194.509 165.616C195.021 167.04 196.157 167.752 197.917 167.752C198.829 167.752 199.541 167.56 200.053 167.176C200.565 166.776 200.821 166.256 200.821 165.616C200.821 165.04 200.613 164.584 200.197 164.248C199.781 163.896 199.221 163.72 198.517 163.72H196.765V162.184H198.037C198.725 162.184 199.261 162.016 199.645 161.68C200.045 161.328 200.245 160.848 200.245 160.24C200.245 159.664 200.005 159.192 199.525 158.824C199.061 158.44 198.445 158.248 197.677 158.248C196.189 158.248 195.189 158.848 194.677 160.048L193.357 159.28C194.157 157.568 195.597 156.712 197.677 156.712C198.957 156.712 199.965 157.048 200.701 157.72C201.453 158.376 201.829 159.184 201.829 160.144C201.829 161.376 201.325 162.272 200.317 162.832ZM214.658 157V167.464H216.338V172.216H214.754V169H204.962V172.216H203.378V167.464H204.842C205.658 166.376 206.066 164.864 206.066 162.928V157H214.658ZM206.762 167.464H213.074V158.536H207.65V162.928C207.65 164.784 207.354 166.296 206.762 167.464ZM227.231 162.232V157H228.815V169H227.231V163.768H220.319V169H218.735V157H220.319V162.232H227.231ZM242.484 159.352V157H244.068V169H242.484V166.648C241.38 168.408 239.764 169.288 237.636 169.288C235.924 169.288 234.46 168.68 233.244 167.464C232.044 166.248 231.444 164.76 231.444 163C231.444 161.24 232.044 159.752 233.244 158.536C234.46 157.32 235.924 156.712 237.636 156.712C239.764 156.712 241.38 157.592 242.484 159.352ZM234.396 166.384C235.308 167.296 236.428 167.752 237.756 167.752C239.084 167.752 240.204 167.296 241.116 166.384C242.028 165.44 242.484 164.312 242.484 163C242.484 161.672 242.028 160.552 241.116 159.64C240.204 158.712 239.084 158.248 237.756 158.248C236.428 158.248 235.308 158.712 234.396 159.64C233.484 160.552 233.028 161.672 233.028 163C233.028 164.312 233.484 165.44 234.396 166.384ZM251.19 157H256.062V169H254.478V164.392H252.414L248.718 169H246.702L250.494 164.344C249.518 164.2 248.718 163.8 248.094 163.144C247.486 162.472 247.182 161.664 247.182 160.72C247.182 159.648 247.566 158.76 248.334 158.056C249.134 157.352 250.086 157 251.19 157ZM251.19 162.904H254.478V158.536H251.19C250.502 158.536 249.926 158.744 249.462 159.16C248.998 159.56 248.766 160.08 248.766 160.72C248.766 161.36 248.998 161.888 249.462 162.304C249.926 162.704 250.502 162.904 251.19 162.904ZM271.854 156.712C273.566 156.712 275.022 157.32 276.222 158.536C277.438 159.752 278.046 161.24 278.046 163C278.046 164.76 277.438 166.248 276.222 167.464C275.022 168.68 273.566 169.288 271.854 169.288C269.726 169.288 268.11 168.408 267.006 166.648V173.8H265.422V157H267.006V159.352C268.11 157.592 269.726 156.712 271.854 156.712ZM268.374 166.384C269.286 167.296 270.406 167.752 271.734 167.752C273.062 167.752 274.182 167.296 275.094 166.384C276.006 165.44 276.462 164.312 276.462 163C276.462 161.672 276.006 160.552 275.094 159.64C274.182 158.712 273.062 158.248 271.734 158.248C270.406 158.248 269.286 158.712 268.374 159.64C267.462 160.552 267.006 161.672 267.006 163C267.006 164.312 267.462 165.44 268.374 166.384ZM286.224 156.712C288.016 156.712 289.448 157.344 290.52 158.608C291.624 159.856 292.176 161.336 292.176 163.048C292.176 163.128 292.16 163.376 292.128 163.792H281.592C281.752 164.992 282.264 165.952 283.128 166.672C283.992 167.392 285.072 167.752 286.368 167.752C288.192 167.752 289.48 167.072 290.232 165.712L291.624 166.528C291.096 167.392 290.368 168.072 289.44 168.568C288.528 169.048 287.496 169.288 286.344 169.288C284.456 169.288 282.92 168.696 281.736 167.512C280.552 166.328 279.96 164.824 279.96 163C279.96 161.192 280.544 159.696 281.712 158.512C282.88 157.312 284.384 156.712 286.224 156.712ZM286.224 158.248C284.976 158.248 283.928 158.616 283.08 159.352C282.248 160.088 281.752 161.056 281.592 162.256H290.544C290.368 160.976 289.88 159.992 289.08 159.304C288.248 158.6 287.296 158.248 286.224 158.248ZM294.696 157H302.376V158.536H296.28V169H294.696V157ZM305.889 166.24L313.041 157H314.385V169H312.801V159.76L305.649 169H304.305V157H305.889V166.24ZM323.327 169.288C321.519 169.288 320.015 168.688 318.815 167.488C317.615 166.256 317.015 164.76 317.015 163C317.015 161.224 317.615 159.736 318.815 158.536C320.015 157.32 321.519 156.712 323.327 156.712C324.511 156.712 325.575 157 326.519 157.576C327.463 158.136 328.151 158.896 328.583 159.856L327.287 160.6C326.967 159.88 326.447 159.312 325.727 158.896C325.023 158.464 324.223 158.248 323.327 158.248C321.999 158.248 320.879 158.712 319.967 159.64C319.055 160.552 318.599 161.672 318.599 163C318.599 164.312 319.055 165.44 319.967 166.384C320.879 167.296 321.999 167.752 323.327 167.752C324.207 167.752 324.999 167.544 325.703 167.128C326.423 166.712 326.983 166.136 327.383 165.4L328.703 166.168C328.207 167.128 327.479 167.888 326.519 168.448C325.559 169.008 324.495 169.288 323.327 169.288ZM329.303 157H339.383V158.536H335.135V169H333.551V158.536H329.303V157ZM347.745 156.712C349.457 156.712 350.913 157.32 352.113 158.536C353.329 159.752 353.937 161.24 353.937 163C353.937 164.76 353.329 166.248 352.113 167.464C350.913 168.68 349.457 169.288 347.745 169.288C345.617 169.288 344.001 168.408 342.897 166.648V173.8H341.313V157H342.897V159.352C344.001 157.592 345.617 156.712 347.745 156.712ZM344.265 166.384C345.177 167.296 346.297 167.752 347.625 167.752C348.953 167.752 350.073 167.296 350.985 166.384C351.897 165.44 352.353 164.312 352.353 163C352.353 161.672 351.897 160.552 350.985 159.64C350.073 158.712 348.953 158.248 347.625 158.248C346.297 158.248 345.177 158.712 344.265 159.64C343.353 160.552 342.897 161.672 342.897 163C342.897 164.312 343.353 165.44 344.265 166.384ZM366.891 159.352V157H368.475V169H366.891V166.648C365.787 168.408 364.171 169.288 362.043 169.288C360.331 169.288 358.867 168.68 357.651 167.464C356.451 166.248 355.851 164.76 355.851 163C355.851 161.24 356.451 159.752 357.651 158.536C358.867 157.32 360.331 156.712 362.043 156.712C364.171 156.712 365.787 157.592 366.891 159.352ZM358.803 166.384C359.715 167.296 360.835 167.752 362.163 167.752C363.491 167.752 364.611 167.296 365.523 166.384C366.435 165.44 366.891 164.312 366.891 163C366.891 161.672 366.435 160.552 365.523 159.64C364.611 158.712 363.491 158.248 362.163 158.248C360.835 158.248 359.715 158.712 358.803 159.64C357.891 160.552 357.435 161.672 357.435 163C357.435 164.312 357.891 165.44 358.803 166.384ZM381.668 157V167.464H383.588V172.216H382.004V169H371.828V157H373.412V167.464H380.084V157H381.668ZM387.569 166.24L394.721 157H396.065V169H394.481V159.76L387.329 169H385.985V157H387.569V166.24ZM403.182 157H408.054V169H406.47V164.392H404.406L400.71 169H398.694L402.486 164.344C401.51 164.2 400.71 163.8 400.086 163.144C399.478 162.472 399.174 161.664 399.174 160.72C399.174 159.648 399.558 158.76 400.326 158.056C401.126 157.352 402.078 157 403.182 157ZM403.182 162.904H406.47V158.536H403.182C402.494 158.536 401.918 158.744 401.454 159.16C400.99 159.56 400.758 160.08 400.758 160.72C400.758 161.36 400.99 161.888 401.454 162.304C401.918 162.704 402.494 162.904 403.182 162.904Z" fill="#001F38"/>
<rect x="110" y="71" width="338" height="355" rx="32" stroke="url(#paint0_linear_57_225)" stroke-width="10"/>
<path d="M282.99 222.931C283.039 222.187 283.707 222.137 284.201 221.939C289.022 219.881 293.843 217.849 298.417 215.32C299.331 214.824 300.74 214.428 300.74 213.362C300.716 212.345 299.208 212.246 298.367 211.75C297.749 211.379 296.834 211.205 296.958 210.238C297.057 209.371 297.897 209.098 298.59 208.9C301.754 207.933 305.018 207.387 308.009 205.875C309.072 205.33 309.468 206.098 309.468 207.065C309.393 213.436 309.418 219.807 308.973 226.178C308.182 237.854 306.723 249.431 304.869 260.958C303.559 269.263 301.754 277.419 298.417 285.252C296.983 288.624 295.302 291.846 293.67 295.119C293.002 296.482 293.373 297.746 293.695 299.011C293.917 299.853 294.56 299.333 294.758 299.06C298.07 294.573 302.817 294.648 307.514 295.243C312.508 295.887 315.327 299.556 317.008 304.216C317.428 305.382 317.725 306.621 317.873 307.861C317.997 308.877 318.59 309.249 319.48 309.645C326.798 312.918 334.141 316.116 341.31 319.71C343.634 320.875 343.783 322.016 341.607 323.305C337.058 326.007 332.311 328.312 327.218 329.874C326.724 330.023 326.18 330.072 325.636 330.147C325.364 330.171 324.919 329.998 325.043 329.8C326.18 328.064 324.252 328.263 323.683 327.792C321.854 326.255 319.851 324.891 317.873 323.503C317.354 323.156 316.736 322.14 316.242 322.735C315.698 323.404 315.302 324.569 316.167 325.635C316.959 326.602 317.502 327.742 318.046 328.858C318.417 329.601 319.035 330.295 318.837 331.411C317.676 329.8 316.612 328.287 315.376 326.552C314.758 328.808 314.758 330.915 313.819 333.27C314.14 330.444 314.412 328.064 314.684 325.685C313.003 329.428 312.508 333.444 311.371 337.683C315.08 335.997 318.096 333.791 321.161 331.262C320.148 333.766 315.327 337.708 310.555 340.013C310.976 334.435 311.371 332.378 311.89 328.411C312.138 326.527 312.731 324.668 313.72 323.032C314.585 321.594 315.549 319.165 315.623 318.545C315.97 315.992 316.217 313.438 316.538 310.91C316.612 310.414 316.044 310.29 316.044 309.993C316.069 309.398 314.956 308.53 316.439 308.208C316.909 308.108 316.711 307.538 316.612 307.216C315.154 302.58 313.102 298.391 307.935 296.73C306.971 296.408 305.908 296.383 304.919 296.656C303.435 297.077 301.927 297.375 300.419 298.019C300.815 298.44 300.914 298.986 301.68 298.911C305.66 298.54 308.355 300.3 308.85 304.117C309.295 307.613 310.011 311.133 309.542 314.703C309.097 318.198 309.023 321.817 307.836 325.139C306.303 329.477 305.883 333.989 305.289 338.451C304.548 344.004 303.732 349.631 305.067 355.234C305.561 357.242 306.155 359.225 307.638 361.208C307.07 357.217 306.773 353.623 306.995 349.929C307.44 352.383 307.91 354.837 308.429 357.688C308.701 356.002 308.281 354.763 308.157 353.523C307.96 351.441 307.984 349.359 307.984 347.252C307.984 346.334 307.737 345.368 309.196 345.144C309.863 345.045 309.814 344.128 309.913 343.484C310.036 342.641 310.185 341.798 310.382 340.98C310.283 348.59 309.369 356.201 310.135 363.91C309.641 363.043 308.998 362.77 308.009 362.72C306.847 362.646 306.006 361.605 305.314 360.613C303.287 357.738 302.743 354.416 302.545 351.02C302.422 348.987 302.471 346.954 302.545 344.921C302.595 343.905 302.496 343.459 301.284 343.731C299.455 344.128 297.576 344.376 295.895 343.136C295.153 342.591 294.708 343.36 294.263 343.731C291.445 346.111 288.626 348.516 285.833 350.896C285.536 351.144 285.264 351.392 284.967 351.615C283.558 352.705 282.94 352.457 282.619 350.722C282.05 347.549 281.902 344.326 281.778 341.129C281.432 331.634 282.149 322.189 283.632 312.794C284.201 309.199 286.031 306.77 289.121 305.134C289.319 305.035 289.467 304.886 289.665 304.811C291.148 304.167 291.84 302.927 292.162 301.39C291.692 301.143 291.222 301.886 290.308 301.539C293.175 300.349 291.939 298.391 291.618 296.532C291.247 294.375 291.989 292.268 292.285 290.185C295.203 270.651 298.046 251.092 300.271 231.458C300.864 226.153 301.556 220.848 302.422 215.568C300.839 241.449 298.095 267.205 293.076 292.739C293.62 291.351 294.164 289.987 294.733 288.599C295.252 287.31 296.167 285.227 296.735 283.938C301.136 273.948 302.694 263.214 304.399 252.53C306.427 239.763 307.44 226.897 308.479 214.031C308.652 212.023 307.416 210.362 307.564 208.404C307.589 208.181 307.416 207.958 307.168 208.057C304.35 209.247 300.988 208.404 298.243 210.412C299.183 210.883 300.073 211.255 300.889 211.775C302.125 212.544 302.249 213.982 301.161 214.948C300.197 215.816 299.035 216.411 297.897 216.981C293.497 219.187 288.898 220.898 284.226 222.435C283.954 222.484 283.36 222.46 282.99 222.931ZM299.331 301.217C299.158 301.539 298.565 301.861 298.565 301.663C298.466 300.077 297.774 301.341 297.551 301.465C295.301 302.779 293.101 304.241 290.802 305.456C289.739 306.026 289.591 306.621 289.863 307.712C291.346 313.637 292.755 319.561 294.164 325.486C295.203 329.8 296.142 334.138 297.502 338.377C297.625 338.724 297.576 339.245 298.12 339.294C298.96 339.393 299.01 339.468 298.886 340.211C298.738 341.104 298.021 341.277 297.18 341.55C298.713 342.294 300.048 341.971 301.433 341.748C303.015 341.476 303.411 340.633 303.361 338.253C303.287 335.625 303.757 333.022 304.597 330.568C305.289 328.56 305.339 327.42 304.449 326.056C301.952 322.164 299.653 318.148 297.675 313.934C300.221 317.653 302.446 321.545 305.314 325.536C305.858 322.858 306.353 320.528 306.822 318.198C307.119 316.76 307.267 315.397 306.056 314.182C305.537 313.661 305.611 312.794 306.674 312.695C307.168 312.645 307.341 312.471 307.341 312.025C307.267 310.042 307.168 308.059 306.797 306.125C306.674 305.481 306.081 305.357 305.636 305.134C303.954 304.291 302.273 303.498 300.592 302.704C299.949 302.332 299.43 301.936 299.331 301.217C301.433 302.407 303.806 302.903 306.13 303.894C305.561 300.845 304.548 300.126 301.828 300.647C300.988 300.771 300.172 301.019 299.331 301.217ZM296.785 340.955C296.365 339.765 295.92 338.699 295.623 337.584C292.879 327.792 290.53 317.925 288.849 307.885C288.676 306.844 288.379 306.869 287.514 307.216C285.561 307.985 285.289 309.695 285.066 311.381C283.657 321.966 283.138 332.601 283.83 343.26C283.954 345.293 284.003 347.376 284.572 349.557C287.613 346.954 290.53 344.426 293.472 341.947C294.411 341.178 295.376 340.385 296.785 340.955ZM340.692 321.545C332.929 317.925 325.587 314.504 318.145 311.034C317.7 314.033 317.255 316.884 316.81 319.735C316.736 320.255 316.934 320.801 317.329 321.123C320.172 323.478 323.016 325.833 325.809 328.213C326.254 328.61 326.675 328.758 327.243 328.461C331.619 326.205 335.97 323.974 340.692 321.545Z" fill="#001F38" fill-opacity="0.5"/>
<path d="M282.99 222.931C282.199 222.98 282.594 223.526 282.644 223.848C283.83 232.599 285.066 241.35 286.179 250.125C287.514 260.586 288.701 271.073 289.541 281.608C289.937 286.641 290.456 291.648 290.505 296.68C290.505 297.052 290.678 297.399 290.753 297.771C290.901 298.763 290.629 299.482 289.739 300.126C287.984 301.366 286.352 302.729 284.671 304.043C284.349 304.291 283.979 304.464 283.509 304.464C284.745 303.027 286.006 301.614 287.539 299.853C284.819 300.696 282.718 301.911 280.517 302.903C279.899 303.2 279.281 303.522 278.638 303.795C278.119 304.018 277.402 303.82 277.501 303.349C277.798 301.861 276.661 301.936 275.894 301.614C261.184 295.54 246.672 289.02 232.951 280.84C222.073 274.345 212.753 266.115 205.187 255.926C204.668 255.232 204.297 254.29 203.061 254.835C202.641 255.009 202.344 254.463 201.998 254.215C201.059 253.546 200.737 252.257 199.575 251.811C199.328 251.712 199.205 251.34 199.353 251.117C200.218 249.728 199.526 247.572 201.702 246.828C197.153 244.374 196.609 241.399 199.526 236.788C200.663 235.003 202.097 233.442 203.778 232.152C206.498 230.045 207.833 230.293 209.242 233.194C209.316 233.367 209.39 233.541 209.539 233.838C211.69 231.558 213.915 229.55 216.313 227.765C217.672 226.724 219.082 225.732 220.738 225.236C223.235 224.468 224.397 225.509 223.977 228.31C223.26 227.591 223.309 226.104 221.801 226.476C220.787 226.723 219.873 227.12 219.007 227.641C215.991 229.5 213.42 231.905 210.997 234.483C209.86 235.697 208.401 235.4 207.808 233.863C207.066 231.954 206.547 231.781 204.916 233.045C202.27 235.102 200.045 237.482 199.254 240.903C198.834 242.713 199.872 244.572 201.603 245.217C204.248 246.208 206.918 246.828 209.613 245.118C210.849 244.324 212.308 243.853 213.717 243.333C214.36 243.11 215.126 242.936 215.596 243.68C216.016 244.349 215.596 244.919 215.225 245.44C214.112 246.952 213.198 248.588 212.481 250.323C212.233 250.918 211.714 251.613 212.11 252.108C212.481 252.604 213.321 252.307 213.939 252.183C217.45 251.464 220.886 250.472 224.273 249.332C229.638 247.522 234.83 245.266 239.923 242.812C240.318 242.614 240.986 242.564 240.862 241.944C240.739 241.3 240.071 241.548 239.626 241.498C238.588 241.325 237.278 241.523 236.931 240.259C236.536 238.846 237.772 238.176 238.736 237.532C239.354 237.11 240.046 236.813 240.739 236.54C253.916 231.037 266.722 224.765 279.034 217.551C279.454 217.303 279.85 216.832 280.542 217.08C279.38 218.27 278.02 219.113 276.685 219.981C266.302 226.624 255.127 231.706 243.829 236.59C242.37 237.234 240.887 237.854 239.453 238.573C238.909 238.846 238.044 239.193 238.266 239.862C238.464 240.432 239.379 240.383 239.997 240.333C241.208 240.234 242.42 239.986 243.631 239.837C244.126 239.788 244.818 239.441 244.966 240.209C245.09 240.829 244.398 240.878 243.977 241.052C241.925 241.895 241.653 242.49 242.543 244.473C247.241 255.157 253.273 265.173 258.588 275.559C260.294 278.881 262.025 282.228 264.151 285.302C264.275 285.5 264.547 285.699 264.102 286.393C255.399 272.386 247.142 258.405 241.085 243.085C236.214 246.035 230.998 248.34 225.608 250.274C221.628 251.687 217.623 253.05 213.445 253.695C210.874 254.091 209.959 252.902 210.898 250.423C211.245 249.481 211.714 248.563 212.184 247.671C212.629 246.828 213.123 245.985 213.742 244.944C210.701 246.06 208.08 247.497 205.509 249.109C203.457 250.398 203.506 250.373 204.817 252.356C212.53 264.181 223.062 272.932 235.127 279.972C238.439 281.906 241.826 283.691 245.263 285.426C233.767 275.212 221.826 265.544 211.047 254.587C211.146 254.488 211.22 254.389 211.319 254.29C214.187 256.818 217.079 259.322 219.947 261.851C229.119 269.982 238.291 278.088 247.439 286.244C248.576 287.26 249.886 287.979 251.221 288.649C259.948 293.036 268.675 297.424 277.402 301.837C278.02 302.159 278.441 302.085 279.009 301.787C282.199 300.052 285.462 298.44 288.948 297.399C290.036 297.077 289.838 296.358 289.764 295.664C289.22 290.185 288.701 284.682 288.083 279.204C286.97 269.04 285.833 258.876 284.671 248.712C283.657 239.664 282.619 230.616 281.605 221.567C281.482 220.452 281.432 219.336 281.457 218.221C282.396 219.584 281.704 221.542 282.99 222.931Z" fill="#001F38" fill-opacity="0.5"/>
<path d="M282.618 311.976C281.481 312.893 280.344 313.339 279.083 312.695C278.489 312.397 278.168 312.472 277.698 312.843C272.531 317.182 267.611 321.768 263.532 327.222C256.56 336.518 257.821 346.806 262.024 353.573C263.928 356.647 266.672 358.953 269.564 361.06C269.738 361.184 269.985 361.531 270.183 361.134C270.875 359.548 271.814 360.564 272.68 360.886C273.965 361.357 274.855 362.572 276.363 362.721C276.907 362.77 276.61 363.439 276.437 363.811C276.141 364.431 275.572 364.481 275.078 364.134C274.113 363.464 273.199 362.721 272.235 362.026C271.987 361.853 271.79 361.555 271.345 361.655C271.567 362.597 272.309 363.092 273.001 363.638C273.495 364.034 273.965 364.481 274.361 364.976C274.608 365.274 274.534 365.72 274.212 365.993C273.94 366.216 273.619 366.142 273.347 365.918C269.466 362.721 265.015 359.969 262.172 355.879C259.181 351.59 256.882 346.706 256.906 341.178C256.931 336.196 258.439 331.684 261.282 327.643C265.683 321.371 270.998 315.992 277.5 311.852C278.563 311.183 277.97 310.092 278.44 309.274C278.934 308.406 278.959 307.762 277.896 307.092C276.907 306.473 276.586 305.183 276.116 304.093C275.992 303.795 275.943 303.399 276.289 303.25C276.462 303.175 276.833 303.299 277.006 303.473C278.168 304.539 279.083 305.853 280.467 306.696C281.036 307.043 280.863 307.96 280.665 308.654C279.997 311.282 279.997 311.282 282.618 311.976Z" fill="#001F38" fill-opacity="0.5"/>
<path d="M282.223 367.108C281.556 366.414 280.913 365.794 280.344 365.125C277.007 361.332 273.175 358.06 269.689 354.416C263.31 347.748 261.975 337.534 266.574 329.527C269.367 324.668 272.73 320.256 276.586 316.24C277.254 315.545 277.897 314.851 279.009 314.579C278.564 315.198 278.119 315.843 277.649 316.463C276.314 318.248 274.905 320.008 273.62 321.842C268.774 328.659 263.904 335.377 265.461 343.508C266.203 347.4 268.354 350.474 271.098 353.201C273.867 355.953 276.71 358.63 279.479 361.382C280.542 362.448 281.457 363.638 282.075 365.026C282.322 365.621 282.718 366.241 282.223 367.108Z" fill="#001F38" fill-opacity="0.5"/>
<path d="M236.809 212.742C234.707 209.941 234.856 205.677 237.081 202.281C239.182 199.058 243.014 197.248 246.401 197.942C248.329 198.339 249.912 199.281 250.431 201.363C250.653 202.231 251.148 202.38 251.939 202.429C254.634 202.553 257.279 202.851 259.479 204.636C260.023 205.082 260.468 204.834 260.963 204.66C262.075 204.313 263.212 203.966 264.399 204.016C265.141 204.065 265.858 204.189 266.352 205.107C264.449 204.983 262.842 205.578 261.086 205.999C263.46 209.965 263.262 213.684 260.048 217.105C260.345 216.361 260.641 215.593 260.913 214.849C261.63 212.891 261.531 210.709 260.691 208.776C259.677 206.421 259.43 206.346 256.834 207.387C256.859 206.47 257.848 206.371 258.194 205.677C256.611 204.413 254.757 204.065 252.829 204.016C250.851 203.966 249.219 203.842 248.676 201.339C248.329 199.727 245.733 198.909 243.583 199.306C238.02 200.322 234.584 206.445 236.512 211.874C236.586 212.147 236.71 212.444 236.809 212.742Z" fill="#001F38" fill-opacity="0.5"/>
<path d="M273.916 210.808C271.37 212.444 268.453 211.205 267.983 208.404C267.81 207.387 267.835 206.371 268.23 205.404C269.615 201.909 271.667 198.934 274.584 196.505C278.292 193.406 282.495 193.728 286.747 194.596C289.022 195.042 291.148 195.934 292.755 197.719C294.016 199.132 294.065 200.669 292.78 202.033C293.027 199.529 291.42 198.413 289.591 197.496C286.624 195.984 283.484 195.587 280.27 195.885C279.38 195.959 277.971 196.405 277.205 196.876C273.842 198.934 271.667 201.983 270.134 205.503C268.848 208.453 269.911 210.189 273.101 210.709C273.323 210.709 273.57 210.759 273.916 210.808Z" fill="#001F38" fill-opacity="0.5"/>
<path d="M257.353 222.757C255.623 222.435 254.56 223.327 253.373 223.897C252.063 224.517 250.777 225.162 249.417 225.608C247.192 226.376 245.412 225.36 244.967 223.079C244.769 222.137 244.547 221.369 243.533 220.972C242.841 220.699 242.544 220.03 242.47 219.286C242.223 217.105 245.041 214.031 247.464 214.006C245.857 215.023 244.893 216.361 244.25 217.948C243.904 218.815 243.904 219.46 244.918 219.881C245.931 220.328 246.327 221.27 246.55 222.311C246.846 223.625 248.033 224.269 249.269 223.773C250.802 223.154 252.31 222.435 253.818 221.741C255.054 221.171 256.167 221.319 257.353 222.757Z" fill="#001F38" fill-opacity="0.5"/>
<path d="M239.552 231.805C236.536 233.962 232.135 232.524 231.146 229.004C230.924 228.236 230.775 227.393 230.825 226.6C230.874 225.112 230.058 223.798 228.847 222.906C227.438 221.865 227.265 220.253 228.278 218.766C229.267 217.303 232.061 215.642 234.113 215.37C232.605 216.386 231.023 217.229 229.885 218.617C228.995 219.708 229.267 221.369 230.405 222.212C231.517 223.03 232.209 224.071 232.382 225.459C233.124 231.111 234.014 231.88 239.552 231.805Z" fill="#001F38" fill-opacity="0.5"/>
<path d="M292.978 211.403C292.656 209.47 291.321 208.949 290.036 208.453C289.294 208.156 288.552 207.883 288.107 207.115C287.613 206.247 287.316 205.107 285.981 205.28C284.745 205.429 284.325 206.47 283.979 207.511C282.916 206.173 283.855 204.09 285.66 203.694C286.97 203.421 288.157 203.768 288.849 204.958C289.442 205.95 290.135 206.644 291.222 207.14C293.027 207.958 293.67 209.569 292.978 211.403Z" fill="#001F38" fill-opacity="0.5"/>
<path d="M217.969 249.183C218.167 247.522 218.736 245.936 218.711 244.275C218.711 242.787 218.736 241.3 217.623 240.036C217.079 239.416 217.129 238.548 217.104 237.73C217.104 236.862 216.684 236.813 216.115 237.259C215.423 237.804 214.755 238.399 214.014 238.92C214.483 237.804 215.126 236.788 216.115 236.044C217.326 235.127 218.538 235.623 218.587 237.135C218.637 238.3 218.909 239.242 219.552 240.234C220.269 241.349 220.12 242.713 219.922 243.977C219.601 245.886 219.032 247.646 217.969 249.183Z" fill="#001F38" fill-opacity="0.5"/>
<path d="M228.922 241.672C229.861 234.582 229.169 232.574 224.769 229.202C226.994 229.029 229.243 230.64 230.43 233.268C231.74 236.144 231.196 239.416 228.922 241.672Z" fill="#001F38" fill-opacity="0.5"/>
<path d="M260.541 218.816C263.211 217.179 266.079 216.237 269.243 216.882C269.861 217.006 270.504 217.254 270.702 217.973C270.801 218.32 270.776 218.84 270.232 218.617C268.081 217.675 265.856 218.221 263.681 218.369C262.618 218.394 261.579 218.642 260.541 218.816Z" fill="#001F38" fill-opacity="0.5"/>
<path d="M295.475 199.108C299.628 197.571 305.685 200.124 305.759 203.297C303.04 200.397 299.406 199.579 295.475 199.108Z" fill="#001F38" fill-opacity="0.5"/>
<path d="M287.218 213.511C285.957 212.37 285.117 210.957 284.845 209.272C286.155 210.387 286.823 211.875 287.218 213.511Z" fill="#001F38" fill-opacity="0.5"/>
<path d="M252.58 214.254C252.234 216.188 251.962 217.651 251.641 219.386C251.097 217.527 251.344 216.014 252.58 214.254Z" fill="#001F38" fill-opacity="0.5"/>
<defs>
<filter id="filter0_ddddd_57_225" x="0.560715" y="0.991802" width="556.879" height="571.879" filterUnits="userSpaceOnUse" color-interpolation-filters="sRGB">
<feFlood flood-opacity="0" result="BackgroundImageFix"/>
<feColorMatrix in="SourceAlpha" type="matrix" values="0 0 0 0 0 0 0 0 0 0 0 0 0 0 0 0 0 0 127 0" result="hardAlpha"/>

<feColorMatrix type="matrix" values="0 0 0 0 0.00784314 0 0 0 0 0.0117647 0 0 0 0 0.160784 0 0 0 0.0165487 0"/>
<feBlend mode="normal" in2="BackgroundImageFix" result="effect1_dropShadow_57_225"/>
<feColorMatrix in="SourceAlpha" type="matrix" values="0 0 0 0 0 0 0 0 0 0 0 0 0 0 0 0 0 0 127 0" result="hardAlpha"/>

<feColorMatrix type="matrix" values="0 0 0 0 0.00784314 0 0 0 0 0.0117647 0 0 0 0 0.160784 0 0 0 0.0262803 0"/>
<feBlend mode="normal" in2="effect1_dropShadow_57_225" result="effect2_dropShadow_57_225"/>
<feColorMatrix in="SourceAlpha" type="matrix" values="0 0 0 0 0 0 0 0 0 0 0 0 0 0 0 0 0 0 127 0" result="hardAlpha"/>

<feColorMatrix type="matrix" values="0 0 0 0 0.00784314 0 0 0 0 0.0117647 0 0 0 0 0.160784 0 0 0 0.0336338 0"/>
<feBlend mode="normal" in2="effect2_dropShadow_57_225" result="effect3_dropShadow_57_225"/>
<feColorMatrix in="SourceAlpha" type="matrix" values="0 0 0 0 0 0 0 0 0 0 0 0 0 0 0 0 0 0 127 0" result="hardAlpha"/>

<feColorMatrix type="matrix" values="0 0 0 0 0.00784314 0 0 0 0 0.0117647 0 0 0 0 0.160784 0 0 0 0.0405744 0"/>
<feBlend mode="normal" in2="effect3_dropShadow_57_225" result="effect4_dropShadow_57_225"/>
<feColorMatrix in="SourceAlpha" type="matrix" values="0 0 0 0 0 0 0 0 0 0 0 0 0 0 0 0 0 0 127 0" result="hardAlpha"/>

<feColorMatrix type="matrix" values="0 0 0 0 0.00784314 0 0 0 0 0.0117647 0 0 0 0 0.160784 0 0 0 0.0492964 0"/>
<feBlend mode="normal" in2="effect4_dropShadow_57_225" result="effect5_dropShadow_57_225"/>
<feBlend mode="normal" in="SourceGraphic" in2="effect5_dropShadow_57_225" result="shape"/>
</filter>
<linearGradient id="paint0_linear_57_225" x1="442.626" y1="75.53" x2="101.55" y2="405.515" gradientUnits="userSpaceOnUse">
<stop stop-color="#001F38"/>
<stop offset="0.25" stop-color="#1E9AFF"/>
<stop offset="0.515625" stop-color="#001F38"/>
<stop offset="0.78125" stop-color="#1E9AFF"/>
<stop offset="1" stop-color="#001F38"/>
</linearGradient>
</defs>
</svg>
